<svg width="144" height="135" viewBox="0 0 144 135" fill="none" xmlns="http://www.w3.org/2000/svg">
<path d="M78.9 118.306C78.9 121.282 76.2 123.792 73 123.792C69.7 123.792 67 121.282 67 118.306C67 115.238 69.7 112.727 73 112.727C76.2 112.727 78.9 115.238 78.9 118.306Z" fill="#98AB3F"/>
<path d="M125.5 37.8756C125.5 40.8511 122.8 43.3616 119.6 43.3616C116.3 43.3616 113.6 40.8511 113.6 37.8756C113.6 34.8072 116.3 32.2966 119.6 32.2966C122.8 32.2966 125.5 34.8072 125.5 37.8756Z" fill="#98AB3F"/>
<path d="M30.2 43.3615C30.2 46.4299 27.5 48.8475 24.2 48.8475C21 48.8475 18.3 46.4299 18.3 43.3615C18.3 40.293 21 37.8755 24.2 37.8755C27.5 37.8755 30.2 40.293 30.2 43.3615Z" fill="#98AB3F"/>
<path fill-rule="evenodd" clip-rule="evenodd" d="M123.8 44.2913C123.8 50.6142 121.3 57.9599 116.5 65.4915C124.9 78.6022 126.1 91.062 119.7 98.7796C115.5 103.894 108.4 106.683 99.2 106.683C97.7334 106.683 96.2334 106.621 94.7 106.497C90.8 112.262 86 116.446 81 118.585L80 118.957L79.9 117.934C79.9 117.438 79.8001 116.942 79.6001 116.446L79.5 115.888L80 115.61C84 113.843 87.9001 110.495 91.1001 106.032C85.3001 105.102 79.2 103.336 73 100.732C66.7 103.336 60.6001 105.102 54.8001 106.032C58.1001 110.495 61.9 113.843 65.9 115.61L66.5 115.888L66.3001 116.446C66.1001 116.942 66 117.438 66 117.934L65.9 118.957L64.9 118.585C59.9 116.446 55.2 112.262 51.2 106.497C49.6667 106.621 48.2001 106.683 46.8001 106.683C37.6001 106.683 30.4 103.894 26.2 98.7796C19.8 91.062 21 78.6022 29.4 65.4915C26.2 60.3774 24 55.4493 22.9 50.6142L22.7 49.7774L24 49.8703C24.4 49.8703 24.8 49.8703 25.2 49.7774L25.9 49.6843L26.1001 50.3352C27.1001 54.2405 28.8001 58.3318 31.3001 62.5161C34.2001 58.6108 37.5 54.7055 41.4 50.9861C42.8 42.1527 45.6 34.0632 49.4 27.4614C48.4 27.3994 47.5 27.3683 46.7 27.3683C38.6 27.3683 32.4001 29.6929 28.8001 34.0632C28.1334 34.869 27.5334 35.7679 27 36.7597L26.8001 37.3176L26.2 37.1316C25.6 37.0076 25.0334 36.9146 24.5 36.8527H23.4L23.8001 35.9228C24.4667 34.4971 25.2667 33.2263 26.2 32.1105C30.4 26.9964 37.6 24.2069 46.7 24.2069C48.1667 24.2069 49.6667 24.2999 51.2 24.4859C57.2 15.5595 64.9 10.6313 73 10.6313C81 10.6313 88.7 15.5595 94.7 24.4859C96.3 24.2999 97.8 24.2069 99.2 24.2069C107.2 24.2069 113.8 26.3456 118.1 30.4368L119 31.2737L117.8 31.5526C117.2 31.7386 116.633 31.9555 116.1 32.2035L115.6 32.4824L115.2 32.1105C111.5 29.0421 105.9 27.3683 99.2 27.3683C98.4 27.3683 97.5 27.3994 96.5 27.4614C100.3 34.0632 103.1 42.1527 104.5 50.9861C108.4 54.7055 111.7 58.6108 114.6 62.5161C118.4 56.2862 120.4 50.1493 120.5 44.8493V44.2913L121.1 44.1984C121.633 44.0744 122.167 43.8884 122.7 43.6404L123.8 43.0826V44.2913ZM105.7 65.4915C105.7 68.591 105.533 71.6904 105.2 74.7898C108.1 71.7214 110.6 68.6529 112.7 65.4915C110.6 62.4231 108.1 59.2617 105.2 56.2862C105.533 59.3856 105.7 62.4541 105.7 65.4915ZM92.9 89.6672C87.8 93.2935 82.4 96.455 76.9 99.0585C82.5 101.197 87.9 102.592 93 103.243C96.3 97.7568 98.9 91.062 100.5 83.7163C98.0333 85.8239 95.5 87.8075 92.9 89.6672ZM45.5 83.7163C47.1 91.062 49.6 97.7568 52.9 103.243C58 102.592 63.4 101.197 69 99.0585C63.5 96.455 58.1001 93.2935 53.1001 89.6672C50.4001 87.8075 47.9 85.8549 45.5 83.7163ZM53.1001 41.4089C58.1001 37.7825 63.5 34.621 69 32.0175C63.4 29.8789 58 28.4841 52.9 27.8333C49.6 33.2263 47.1 39.9211 45.5 47.3598C47.9 45.2211 50.4001 43.2685 53.1001 41.4089ZM73 30.2509C79.2 27.6473 85.3001 25.8806 91.1001 24.9508C85.9001 17.7911 79.5 13.7928 73 13.7928C66.4 13.7928 60.0001 17.7911 54.8001 24.9508C60.6001 25.8806 66.7 27.6473 73 30.2509ZM100.5 47.3598C98.9 39.9211 96.3 33.2263 93 27.8333C87.9 28.4841 82.5 29.8789 76.9 32.0175C82.4 34.621 87.8 37.7825 92.9 41.4089C95.5 43.2685 98 45.2211 100.5 47.3598ZM44.5 78.6022C47.8 81.6706 51.3001 84.5531 55.1001 87.2496C60.7001 91.2479 66.8 94.6883 73 97.3848C79.2 94.6883 85.2001 91.2479 90.8001 87.2496C94.6001 84.5531 98.2 81.6706 101.4 78.6022C102 74.325 102.4 69.9547 102.4 65.4915C102.4 61.1213 102 56.7511 101.4 52.4738C98.2 49.4054 94.6001 46.5229 90.8001 43.8264C85.2001 39.8281 79.2 36.3878 73 33.6913C66.8 36.3878 60.7001 39.8281 55.1001 43.8264C51.3001 46.5229 47.8 49.4054 44.5 52.4738C43.9 56.7511 43.6001 61.1213 43.6001 65.4915C43.6001 69.9547 43.9 74.325 44.5 78.6022ZM114.6 68.467C111.7 72.3723 108.4 76.2776 104.5 79.9969C103.1 88.8304 100.3 96.9199 96.5 103.522C97.5 103.584 98.4 103.615 99.2 103.615C107.3 103.615 113.5 101.29 117.1 96.9199C122.5 90.4111 121.6 79.9969 114.6 68.467V68.467ZM40.2 65.4915C40.2 62.4541 40.3667 59.3856 40.7 56.2862C37.9 59.2617 35.4 62.4231 33.2 65.4915C35.4 68.6529 37.9 71.7214 40.7 74.7898C40.3667 71.6904 40.2 68.591 40.2 65.4915ZM41.4 79.9969C37.5 76.2776 34.2001 72.3723 31.3001 68.467C24.3001 79.9969 23.4001 90.4111 28.8001 96.9199C32.4001 101.29 38.6 103.615 46.7 103.615C47.5 103.615 48.4 103.584 49.4 103.522C45.6 96.9199 42.8 88.8304 41.4 79.9969V79.9969Z" fill="#92BC2B"/>
<path fill-rule="evenodd" clip-rule="evenodd" d="M71.9 134.392C32.3 134.392 0 104.452 0 67.5372C0 30.7158 32.3 0.775146 71.9 0.775146C111.5 0.775146 143.8 30.7158 143.8 67.5372C143.8 104.452 111.5 134.392 71.9 134.392ZM71.9 2.44883C33.3 2.44883 1.90002 31.6456 1.90002 67.5372C1.90002 103.522 33.3 132.719 71.9 132.719C110.5 132.719 141.9 103.522 141.9 67.5372C141.9 31.6456 110.5 2.44883 71.9 2.44883Z" fill="#98AB3F"/>
</svg>
