<svg width="146" height="162" viewBox="0 0 146 162" fill="none" xmlns="http://www.w3.org/2000/svg">
<path d="M97 40.7984C97 40.7984 109.4 42.1002 116.9 49.6318C124.4 57.0705 127.5 60.6968 124.6 63.0214C124.6 63.0214 124.1 72.5987 109.8 74.4584C109.8 74.4584 115.4 87.569 115.4 93.7989C115.4 100.029 113.1 98.3551 113.1 98.3551C113.1 98.3551 115.3 106.445 113.7 109.978C112.2 113.604 110.7 111.28 110.7 111.28C110.7 111.28 106.4 124.762 104.6 134.619C102.9 144.475 102.1 150.24 104.7 151.263C107.3 152.285 114.9 152.192 114.4 159.631C114.4 159.631 112.4 162.514 102.7 161.584C92.8999 160.561 89.5 149.682 88.5 142.429C88.5 142.429 82.1999 150.891 77.8999 151.913C77.8999 151.913 89.7 151.449 93 160.003C93 160.003 95.5999 162.7 72.0999 161.77C48.5999 160.747 40.2999 163.071 36.6999 154.517C36.6999 154.517 24.8999 156.47 19.1999 150.147C13.3999 143.824 13.0999 128.11 17.0999 131.085C21.0999 134.154 23.7999 137.873 23.7999 137.873C23.7999 137.873 17.5999 125.134 25.3999 112.117C33.1999 99.006 46.3999 82.7339 65.3999 76.411C84.3999 70.0882 85.2999 53.1652 77.7999 47.4002C70.1999 41.7282 56.1999 32.9878 54.5999 24.0614C52.9999 15.135 55.5999 10.2069 55.5999 10.2069C55.5999 10.2069 59.2999 19.6912 68.8999 22.9456C78.4999 26.2 85.6999 34.8475 85.6999 39.7756C85.6999 39.7756 85.5 29.0825 81.5 22.8526C77.5 16.6227 79.0999 4.06999 81.1999 0.536621C81.1999 0.536621 105.6 10.7648 97 40.7984V40.7984Z" fill="#98AB3F"/>
<path d="M49.4999 56.5124C49.4999 56.5124 44.9999 61.0686 34.4999 61.9984V62.0914C34.4333 62.0294 34.3998 61.9984 34.3998 61.9984C27.2998 54.7457 27.1999 48.5158 27.1999 48.5158C27.1332 47.648 27.2666 46.8111 27.5999 46.0053C28.8999 42.7509 32.7999 41.0772 36.2999 42.2859C38.5999 43.1228 40.1999 44.9825 40.5999 47.0281C42.3999 45.7263 44.7999 45.3544 47.0999 46.0983C50.5999 47.4 52.3999 51.0264 50.9999 54.2808C50.6666 55.1487 50.1666 55.8925 49.4999 56.5124V56.5124Z" fill="#98AB3F"/>
<path d="M9.60003 70.7389C8.70003 68.3213 9.90006 65.7178 12.5001 64.788C14.2001 64.1371 16 64.509 17.3 65.4389C17.6 63.8581 18.7 62.5564 20.4 61.9985C23 61.0686 25.8 62.2774 26.8 64.602C27.0667 65.2839 27.1667 65.9348 27.1 66.5546C27.1 66.5546 27.1 71.1108 21.8 76.4109C14.1 75.667 10.8 72.3196 10.8 72.3196C10.2667 71.8857 9.8667 71.3588 9.60003 70.7389Z" fill="#98AB3F"/>
<path d="M114.9 144.94C114.9 144.94 111.8 127.645 129.4 121.322C129.4 121.322 136.5 133.968 114.9 144.94Z" fill="#98AB3F"/>
<path d="M119 146.52C119 146.52 129.8 138.431 140.6 146.613C140.6 146.613 134.5 155.447 119 146.52Z" fill="#98AB3F"/>
<path d="M5.3999 94.3567C5.3999 95.6585 4.19995 96.8673 2.69995 96.8673C1.19995 96.8673 0 95.6585 0 94.3567C0 92.962 1.19995 91.8462 2.69995 91.8462C4.19995 91.8462 5.3999 92.962 5.3999 94.3567Z" fill="#98AB3F"/>
<path d="M114.7 9.18413C114.7 10.5789 113.5 11.6947 112 11.6947C110.5 11.6947 109.3 10.5789 109.3 9.18413C109.3 7.78938 110.5 6.67358 112 6.67358C113.5 6.67358 114.7 7.78938 114.7 9.18413Z" fill="#98AB3F"/>
<path d="M146 99.3777C146 100.772 144.8 101.888 143.3 101.888C141.8 101.888 140.6 100.772 140.6 99.3777C140.6 97.983 141.8 96.8672 143.3 96.8672C144.8 96.8672 146 97.983 146 99.3777Z" fill="#98AB3F"/>
</svg>
