<svg width="159" height="175" viewBox="0 0 159 175" fill="none" xmlns="http://www.w3.org/2000/svg">
<path d="M3.37587 106.144C3.37587 106.144 8.07588 108.561 17.9759 107.074C27.7759 105.679 31.4759 119.254 31.4759 119.254C0.275877 129.669 3.37587 106.144 3.37587 106.144Z" fill="#98AB3F"/>
<path d="M2.77588 81.0383C2.77588 81.0383 4.97592 84.3858 12.3759 86.9893C19.8759 89.4998 16.6759 100.286 16.6759 100.286C-9.22409 96.2876 2.77588 81.0383 2.77588 81.0383V81.0383Z" fill="#98AB3F"/>
<path d="M126.676 119.254C126.676 119.254 130.376 105.679 140.176 107.074C150.076 108.561 154.776 106.144 154.776 106.144C154.776 106.144 157.876 129.669 126.676 119.254Z" fill="#98AB3F"/>
<path d="M141.476 100.286C141.476 100.286 138.276 89.4998 145.776 86.9893C153.176 84.3858 155.376 81.0383 155.376 81.0383C155.376 81.0383 167.376 96.2876 141.476 100.286V100.286Z" fill="#98AB3F"/>
<path d="M80.5759 123.253V140.176C81.5759 133.946 84.5759 126.414 93.0759 124.927C108.076 122.323 113.576 116.465 113.576 116.465C113.576 116.465 131.076 148.916 80.5759 149.102V172.255C80.5759 173.371 79.6759 174.208 78.5759 174.208C77.3759 174.208 76.4759 173.371 76.4759 172.255V149.102C25.9759 148.916 43.5759 116.465 43.5759 116.465C43.5759 116.465 48.9759 122.323 64.0759 124.927C72.4759 126.414 75.4759 133.76 76.4759 139.897V123.253C25.9759 123.067 43.5759 90.6159 43.5759 90.6159C43.5759 90.6159 48.9759 96.4738 64.0759 99.0773C72.4759 100.565 75.4759 107.911 76.4759 114.048V97.4036C25.9759 97.2177 43.5759 64.8595 43.5759 64.8595C43.5759 64.8595 48.9759 70.6244 64.0759 73.228C72.4759 74.7157 75.4759 82.0614 76.4759 88.1983V74.9017C55.5759 73.9718 54.3759 47.2856 61.6759 42.0785C69.1759 36.7785 78.5759 20.5994 78.5759 20.5994C78.5759 20.5994 87.8759 36.7785 95.3759 42.0785C102.676 47.2856 101.476 73.9718 80.5759 74.9017V88.4772C81.5759 82.2473 84.5759 74.8087 93.0759 73.228C108.076 70.6244 113.576 64.8595 113.576 64.8595C113.576 64.8595 131.076 97.3106 80.5759 97.4036V114.327C81.5759 108.097 84.5759 100.565 93.0759 99.0773C108.076 96.4738 113.576 90.6159 113.576 90.6159C113.576 90.6159 131.076 123.067 80.5759 123.253V123.253Z" fill="#98AB3F"/>
<path d="M26.5759 36.6857C26.5759 39.0102 24.5759 40.9629 21.9759 40.9629C19.4759 40.9629 17.3759 39.0102 17.3759 36.6857C17.3759 34.2681 19.4759 32.3154 21.9759 32.3154C24.5759 32.3154 26.5759 34.2681 26.5759 36.6857Z" fill="#98AB3F"/>
<path d="M135.976 36.6857C135.976 39.0102 133.876 40.9629 131.376 40.9629C128.776 40.9629 126.676 39.0102 126.676 36.6857C126.676 34.2681 128.776 32.3154 131.376 32.3154C133.876 32.3154 135.976 34.2681 135.976 36.6857Z" fill="#98AB3F"/>
<path d="M83.7759 5.35021C83.7759 7.67479 81.6759 9.62742 79.0759 9.62742C76.5759 9.62742 74.4759 7.67479 74.4759 5.35021C74.4759 2.93264 76.5759 0.97998 79.0759 0.97998C81.6759 0.97998 83.7759 2.93264 83.7759 5.35021Z" fill="#98AB3F"/>
</svg>
