<svg width="163" height="180" viewBox="0 0 163 180" fill="none" xmlns="http://www.w3.org/2000/svg">
<path d="M26.479 130.993C26.479 130.993 8.57899 111.281 28.579 94.2646L29.579 96.3102C29.579 96.3102 31.279 91.4751 35.179 88.1277L35.379 90.4523C35.379 90.4523 39.979 84.9663 44.079 83.3855L43.2789 86.175L54.079 79.2943L53.2789 82.1768L63.079 77.6206L62.7789 79.0153L73.7789 76.2258L71.579 83.8505L74.179 83.1066C74.179 83.1066 73.679 90.0803 72.679 92.4979L74.579 91.847C74.579 91.847 72.079 99.0067 70.879 101.145L74.579 99.0997C74.579 99.0997 71.2789 108.491 69.2789 110.63L72.679 109.142C72.679 109.142 70.5789 115.837 66.7789 118.533C66.7789 118.533 60.679 138.06 31.679 134.061C31.679 134.061 26.2789 144.197 26.2789 148.009C26.2789 148.009 23.779 148.66 23.879 146.707C23.979 144.662 42.779 100.494 61.679 88.4067C61.679 88.4067 49.679 91.7541 26.479 130.993V130.993Z" fill="#98AB3F"/>
<path d="M101.179 83.2925C101.179 83.2925 126.679 73.3433 138.179 96.2172L135.879 96.4962C135.879 96.4962 140.279 99.3786 142.579 103.935L140.079 103.377C140.079 103.377 144.379 109.049 144.779 113.233L142.079 111.652L145.879 123.368L143.179 121.788L144.879 131.83L143.679 131.086L143.179 141.686L135.979 137.502L136.079 140.012C136.079 140.012 128.979 137.502 126.779 135.828L126.879 137.781C126.879 137.781 120.279 133.411 118.479 131.644L119.479 135.549C119.479 135.549 110.779 129.877 109.279 127.46L109.779 130.9C109.779 130.9 103.479 126.995 101.879 122.81C101.879 122.81 83.5789 111.466 96.4789 87.0119C96.4789 87.0119 87.6789 79.2013 83.7789 78.0855C83.7789 78.0855 83.779 75.6679 85.879 76.3188C87.879 76.9697 127.479 107.003 134.379 127.274C134.379 127.274 134.479 115.651 101.179 83.2925Z" fill="#98AB3F"/>
<path d="M110.779 161.492C110.779 161.492 101.179 185.574 75.379 177.764L76.7789 175.997C76.7789 175.997 71.479 177.02 66.379 175.532L68.4789 174.137C68.4789 174.137 61.079 173.208 57.579 170.604L60.579 169.86L48.7789 164.467L51.879 163.723L42.7789 158.051L44.2789 157.679L36.179 150.148L44.4789 148.102L42.4789 146.428C42.4789 146.428 49.179 143.36 52.079 142.895L50.4789 141.686C50.4789 141.686 58.379 140.198 61.079 140.105L57.179 138.153C57.179 138.153 67.679 136.2 70.679 136.758L67.579 134.805C67.579 134.805 74.8789 133.132 79.2789 134.991C79.2789 134.991 100.679 130.249 111.079 155.727C111.079 155.727 123.279 155.076 126.779 153.216C126.779 153.216 128.679 154.89 126.779 155.82C124.879 156.75 74.179 163.165 53.579 153.96C53.579 153.96 62.6789 161.957 110.779 161.492V161.492Z" fill="#98AB3F"/>
<path d="M61.4789 176.276C61.4789 176.276 64.679 177.95 68.879 179.344H23.2789C14.6789 179.344 7.17893 175.253 2.97893 168.279C-1.12107 161.398 -1.02107 153.216 3.47893 146.428L18.579 123.74C19.679 126.437 21.4789 130.807 23.4789 133.411L11.6789 151.17C9.07894 155.076 8.97895 159.911 11.379 163.909C13.779 168 18.2789 170.418 23.2789 170.418H52.4789C52.4789 170.418 56.1789 174.416 63.7789 174.881L61.4789 176.276Z" fill="#98AB3F"/>
<path d="M56.879 73.9013L50.2789 76.0399L61.379 59.3959C65.579 52.98 72.979 49.1677 81.079 49.1677C89.179 49.1677 96.5789 52.98 100.779 59.3959L113.479 78.4575C110.079 78.3645 106.079 78.4575 102.679 79.2013L92.679 64.138C90.179 60.3257 85.879 58.0941 81.079 58.0941C76.379 58.0941 71.9789 60.3257 69.4789 64.138L63.179 73.7153L56.079 76.2259L56.879 73.9013Z" fill="#98AB3F"/>
<path d="M159.179 168.279C155.079 175.253 147.479 179.344 138.979 179.344H98.179C101.779 177.764 105.279 175.067 108.379 170.418H138.979C143.979 170.418 148.379 168.001 150.779 163.909C153.279 159.911 153.079 155.076 150.479 151.171L145.179 143.081L145.879 134.155L146.579 135.084C146.579 135.084 146.879 132.202 146.579 128.297L158.679 146.428C163.179 153.216 163.379 161.399 159.179 168.279V168.279Z" fill="#98AB3F"/>
<path d="M80.379 40.1484C79.879 40.1484 79.379 39.7765 79.379 39.2186V1.2814C79.379 0.723496 79.879 0.351562 80.379 0.351562C80.879 0.351562 81.379 0.723496 81.379 1.2814V39.2186C81.379 39.7765 80.879 40.1484 80.379 40.1484Z" fill="#98AB3F"/>
<path d="M64.579 44.2398C64.279 44.2398 63.979 44.1468 63.879 43.8678L39.6789 13.2763C39.3789 12.9044 39.479 12.3465 39.879 11.9745C40.279 11.6956 40.8789 11.7886 41.1789 12.2535L65.379 42.845C65.679 43.2169 65.5789 43.7748 65.1789 44.0538C64.9789 44.1778 64.779 44.2398 64.579 44.2398V44.2398Z" fill="#98AB3F"/>
<path d="M96.9789 44.2398C96.7789 44.2398 96.579 44.1778 96.379 44.0538C95.979 43.7748 95.8789 43.2169 96.1789 42.845L120.379 12.2535C120.679 11.7886 121.279 11.6956 121.679 11.9745C122.079 12.3465 122.179 12.9044 121.879 13.2763L97.7789 43.8678C97.5789 44.1468 97.2789 44.2398 96.9789 44.2398Z" fill="#98AB3F"/>
</svg>
