<svg width="188" height="173" viewBox="0 0 188 173" fill="none" xmlns="http://www.w3.org/2000/svg">
<path d="M23.5 57.1847C52.3 98.0973 86.6 169.323 86.6 169.323C46.2 186.06 12.8 135.105 12.8 135.105L21 136.778C0.200001 110.092 0 79.2217 0 79.2217L5.59999 83.313C-2.30001 65.0882 8.5 34.8687 8.5 34.8687C8.5 34.8687 42.1 41.0056 55.2 56.3478L54.2 49.9319C54.2 49.9319 83 65.2742 97.7 95.2148L100.1 87.8692C100.1 87.8692 133.6 143.566 91.9 166.812C69.3 121.25 40.4 77.455 24.9 56.5338C21.4 51.6057 16.6 47.7933 13.4 43.888C13.4 43.888 17.3 48.7232 23.5 57.1847V57.1847Z" fill="#98AB3F"/>
<path d="M70.8 23.6177C70.8 25.4773 69.2 26.9651 67.3 26.9651C65.3 26.9651 63.7 25.4773 63.7 23.6177C63.7 21.758 65.3 20.2703 67.3 20.2703C69.2 20.2703 70.8 21.758 70.8 23.6177Z" fill="#98AB3F"/>
<path d="M128 23.6177C128 25.4773 126.4 26.9651 124.4 26.9651C122.4 26.9651 120.8 25.4773 120.8 23.6177C120.8 21.758 122.4 20.2703 124.4 20.2703C126.4 20.2703 128 21.758 128 23.6177Z" fill="#98AB3F"/>
<path d="M99.8 3.34741C99.8 5.20707 98.2 6.6948 96.2 6.6948C94.2 6.6948 92.6 5.20707 92.6 3.34741C92.6 1.58072 94.2 0 96.2 0C98.2 0 99.8 1.58072 99.8 3.34741Z" fill="#98AB3F"/>
<path d="M165.1 135.012L173.3 133.338C173.3 133.338 141.7 181.596 102.7 168.765C115.8 159.466 119.4 145.519 118.3 131.106C130.8 107.768 147.7 77.827 162.9 56.1619C169.1 47.7934 172.7 42.1214 172.7 42.1214C169.5 45.9337 165.3 50.118 161.8 55.0461C151.2 69.3655 134.4 94.2851 117.3 123.017C113.8 103.955 103.9 85.3587 98.9 76.8042C113.8 57.8356 131.9 48.1653 131.9 48.1653L130.9 54.5812C144 39.2389 177.6 33.1021 177.6 33.1021C177.6 33.1021 188.4 63.3216 180.5 81.5464L186.1 77.4551C186.1 77.4551 185.9 108.326 165.1 135.012V135.012Z" fill="#98AB3F" stroke="#7FA828" stroke-width="2" stroke-linecap="round" stroke-linejoin="round"/>
</svg>
