<svg width="174" height="125" viewBox="0 0 174 125" fill="none" xmlns="http://www.w3.org/2000/svg">
<path d="M116.136 1.06821C144.148 17.1129 135.934 42.924 142.186 56.7209C142.493 57.4185 142.002 58.2711 141.389 58.0386C114.114 49.5124 114.727 9.59438 115.094 1.84332C115.156 1.22323 115.707 0.835677 116.136 1.06821V1.06821Z" stroke="#98AB3F" stroke-width="2" stroke-linecap="round" stroke-linejoin="round"/>
<path d="M115.524 1.06787C115.524 1.06787 123.247 39.9782 142.064 57.8057" stroke="#98AB3F" stroke-linecap="round" stroke-linejoin="round"/>
<path d="M161.616 6.57121C168.971 37.808 151.564 45.4041 148.009 57.9608C147.825 58.5809 147.151 58.6584 146.906 58.0383C136.241 31.4521 156.59 10.0592 160.697 6.18366C161.065 5.79611 161.494 6.02864 161.616 6.57121V6.57121Z" stroke="#98AB3F" stroke-width="2" stroke-linecap="round" stroke-linejoin="round"/>
<path d="M161.31 6.02808C161.31 6.02808 146.048 33.6219 147.396 58.4253" stroke="#98AB3F" stroke-linecap="round" stroke-linejoin="round"/>
<path d="M173.814 50.2099C167.929 60.2863 162.045 59.7437 157.264 59.2787C155.303 59.0461 153.587 58.8911 152.116 59.5112C152.034 59.5629 151.932 59.5629 151.809 59.5112C151.564 59.5112 151.319 59.3562 151.135 59.1236C150.89 58.8136 150.829 58.271 151.012 57.8835C156.713 43.2339 170.626 47.4195 173.323 48.4272C173.63 48.5047 173.875 48.8147 173.936 49.1248C174.059 49.5123 173.997 49.8999 173.814 50.2099Z" fill="#98AB3F"/>
<path d="M40.0064 92.916C30.1955 119.23 11.4729 112.818 1.98895 119.147C1.4984 119.48 0.926097 119.064 1.00785 118.481C5.5863 93.1658 33.8746 92 39.4341 92C39.8429 92 40.1699 92.4164 40.0064 92.916V92.916Z" stroke="#98AB3F" stroke-width="2" stroke-linecap="round" stroke-linejoin="round"/>
<path d="M39.9247 92.333C39.9247 92.333 12.781 101.16 1.17136 119.064" stroke="#98AB3F" stroke-linecap="round" stroke-linejoin="round"/>
<path d="M45.4842 92.9992C55.2952 101.826 54.0688 109.82 53.006 116.233C52.5972 118.897 52.5972 120.646 52.6789 123.228C52.6789 123.311 52.7607 123.477 52.6789 123.644C52.6789 123.977 52.6789 124.31 52.3519 124.643C51.9431 125.143 51.289 124.81 50.7985 124.56C36.1638 115.483 42.1321 97.0796 43.522 93.4156C43.6038 93.0825 43.9308 92.4163 44.2578 92.333C44.6666 92.2498 45.1572 92.6661 45.4842 92.9992V92.9992Z" fill="#98AB3F"/>
<path d="M60.28 47.0649V34.3449C60.28 33.6249 60.176 33.0489 59.968 32.6169C59.776 32.1689 59.32 31.9449 58.6 31.9449H58.36V31.2249H64.84C65.592 31.2249 66.376 31.2729 67.192 31.3689C68.024 31.4489 68.792 31.6329 69.496 31.9209C70.216 32.1929 70.8 32.6089 71.248 33.1689C71.696 33.7289 71.92 34.4809 71.92 35.4249C71.92 36.1129 71.64 36.7929 71.08 37.4649C70.536 38.1209 69.704 38.5929 68.584 38.8809C69.64 38.9769 70.456 39.2089 71.032 39.5769C71.624 39.9449 72.04 40.4009 72.28 40.9449C72.52 41.4729 72.64 42.0489 72.64 42.6729C72.64 43.5849 72.432 44.3289 72.016 44.9049C71.616 45.4809 71.072 45.9289 70.384 46.2489C69.696 46.5529 68.928 46.7689 68.08 46.8969C67.248 47.0089 66.408 47.0649 65.56 47.0649H60.28ZM65.2 46.1049C66.528 46.1049 67.536 45.8169 68.224 45.2409C68.928 44.6649 69.28 43.8489 69.28 42.7929C69.28 41.6889 68.936 40.8649 68.248 40.3209C67.576 39.7609 66.56 39.4809 65.2 39.4809H63.4V45.8649C63.576 45.9129 63.824 45.9689 64.144 46.0329C64.464 46.0809 64.816 46.1049 65.2 46.1049ZM63.4 38.4009H65.2C65.856 38.4009 66.432 38.3049 66.928 38.1129C67.44 37.9049 67.84 37.5769 68.128 37.1289C68.416 36.6649 68.56 36.0569 68.56 35.3049C68.56 34.5049 68.376 33.8809 68.008 33.4329C67.656 32.9849 67.192 32.6649 66.616 32.4729C66.056 32.2809 65.464 32.1849 64.84 32.1849C64.664 32.1849 64.464 32.1929 64.24 32.2089C64.032 32.2249 63.752 32.2729 63.4 32.3529V38.4009ZM81.0533 47.3049C79.9333 47.3049 78.9573 47.0489 78.1253 46.5369C77.2933 46.0249 76.6533 45.3289 76.2053 44.4489C75.7573 43.5529 75.5333 42.5449 75.5333 41.4249C75.5333 40.1449 75.7653 39.0729 76.2293 38.2089C76.6933 37.3289 77.3253 36.6649 78.1253 36.2169C78.9253 35.7689 79.8213 35.5449 80.8133 35.5449C81.8053 35.5449 82.7013 35.7449 83.5013 36.1449C84.3013 36.5449 84.9333 37.1049 85.3973 37.8249C85.8613 38.5449 86.0933 39.3849 86.0933 40.3449L85.9973 41.8569H78.7733C78.7733 43.4409 79.0133 44.5689 79.4933 45.2409C79.9893 45.8969 80.6293 46.2249 81.4133 46.2249C82.2453 46.2249 82.9173 46.0329 83.4293 45.6489C83.9573 45.2649 84.4293 44.7929 84.8453 44.2329L85.5893 44.7849C85.3653 45.1369 85.0613 45.5129 84.6773 45.9129C84.3093 46.2969 83.8293 46.6249 83.2373 46.8969C82.6613 47.1689 81.9333 47.3049 81.0533 47.3049ZM78.7733 40.7769H82.8533C82.8533 39.1929 82.6613 38.1049 82.2773 37.5129C81.9093 36.9209 81.4213 36.6249 80.8133 36.6249C80.4613 36.6249 80.1253 36.7529 79.8053 37.0089C79.5013 37.2649 79.2533 37.6969 79.0613 38.3049C78.8693 38.8969 78.7733 39.7209 78.7733 40.7769ZM93.5523 47.3049C92.5602 47.3049 91.7442 47.2169 91.1042 47.0409C90.4802 46.8649 90.0082 46.6249 89.6882 46.3209C89.4002 46.0489 89.2322 45.6569 89.1842 45.1449C89.1362 44.6329 89.1122 44.0729 89.1122 43.4649H89.9522C90.0802 44.2329 90.3922 44.8889 90.8882 45.4329C91.3842 45.9609 92.1122 46.2249 93.0722 46.2249C93.9682 46.2249 94.5922 46.0729 94.9442 45.7689C95.2962 45.4489 95.4722 45.0569 95.4722 44.5929C95.4722 44.1289 95.2643 43.7609 94.8483 43.4889C94.4322 43.2009 93.9202 42.9209 93.3122 42.6489L92.0642 42.1209C91.1042 41.7049 90.3522 41.2329 89.8082 40.7049C89.2642 40.1769 88.9922 39.5209 88.9922 38.7369C88.9922 37.6969 89.4242 36.9049 90.2882 36.3609C91.1522 35.8169 92.2402 35.5449 93.5523 35.5449C94.5442 35.5449 95.3522 35.6329 95.9762 35.8089C96.6162 35.9849 97.0962 36.2249 97.4162 36.5289C97.7043 36.8009 97.8723 37.1929 97.9202 37.7049C97.9683 38.2169 97.9923 38.7769 97.9923 39.3849H97.1522C97.0243 38.6169 96.7122 37.9689 96.2162 37.4409C95.7202 36.8969 94.9922 36.6249 94.0322 36.6249C93.3122 36.6249 92.7922 36.7849 92.4722 37.1049C92.1522 37.4089 91.9922 37.7929 91.9922 38.2569C91.9922 38.6889 92.1442 39.0409 92.4482 39.3129C92.7522 39.5689 93.1682 39.8089 93.6962 40.0329L95.1363 40.6329C96.2403 41.0969 97.0723 41.5849 97.6323 42.0969C98.1923 42.5929 98.4722 43.2649 98.4722 44.1129C98.4722 45.1529 98.0082 45.9449 97.0803 46.4889C96.1523 47.0329 94.9763 47.3049 93.5523 47.3049ZM105.907 47.3049C104.819 47.3049 103.963 47.0089 103.339 46.4169C102.731 45.8249 102.427 44.9529 102.427 43.8009V36.8649H100.987V35.7849H102.427V33.6249L103.627 32.1849H105.547V35.7849H108.187V36.8649H105.547V43.9449C105.547 44.8409 105.651 45.4489 105.859 45.7689C106.083 46.0729 106.395 46.2249 106.795 46.2249C107.211 46.2249 107.579 46.1529 107.899 46.0089C108.219 45.8649 108.483 45.7209 108.691 45.5769L109.027 46.2489C108.707 46.5369 108.291 46.7849 107.779 46.9929C107.267 47.2009 106.643 47.3049 105.907 47.3049Z" fill="#262626"/>
<path d="M36.828 86.1264C35.844 86.1264 34.872 86.0304 33.912 85.8384C32.952 85.6464 32.076 85.3704 31.284 85.0104C30.492 84.6264 29.856 84.1704 29.376 83.6424C28.92 83.0904 28.692 82.4784 28.692 81.8064V77.5944H29.7C30.084 80.0904 30.852 81.8664 32.004 82.9224C33.18 83.9784 34.776 84.5064 36.792 84.5064C37.704 84.5064 38.496 84.3744 39.168 84.1104C39.864 83.8464 40.392 83.4624 40.752 82.9584C41.136 82.4304 41.328 81.7824 41.328 81.0144C41.328 79.9824 40.992 79.1304 40.32 78.4584C39.672 77.7624 38.772 77.0664 37.62 76.3704L33.192 73.7064C31.56 72.7464 30.408 71.7624 29.736 70.7544C29.064 69.7464 28.728 68.5824 28.728 67.2624C28.728 65.3664 29.448 63.8664 30.888 62.7624C32.352 61.6584 34.32 61.1064 36.792 61.1064C37.776 61.1064 38.748 61.2024 39.708 61.3944C40.668 61.5864 41.544 61.8744 42.336 62.2584C43.128 62.6184 43.752 63.0624 44.208 63.5904C44.688 64.1184 44.928 64.7304 44.928 65.4264V69.6384H43.92C43.512 67.1424 42.744 65.3664 41.616 64.3104C40.488 63.2544 39.012 62.7264 37.188 62.7264C36.324 62.7264 35.568 62.8704 34.92 63.1584C34.296 63.4464 33.816 63.8544 33.48 64.3824C33.144 64.8864 32.976 65.4984 32.976 66.2184C32.976 67.2264 33.312 68.0424 33.984 68.6664C34.68 69.2904 35.592 69.9384 36.72 70.6104L41.148 73.2384C42.78 74.1984 43.968 75.1464 44.712 76.0824C45.48 76.9944 45.864 78.1104 45.864 79.4304C45.864 81.4944 45.084 83.1264 43.524 84.3264C41.964 85.5264 39.732 86.1264 36.828 86.1264ZM58.5917 85.8744C56.9117 85.8744 55.4477 85.4904 54.1997 84.7224C52.9517 83.9544 51.9917 82.9104 51.3197 81.5904C50.6477 80.2464 50.3117 78.7344 50.3117 77.0544C50.3117 75.1344 50.6597 73.5264 51.3557 72.2304C52.0517 70.9104 52.9997 69.9144 54.1997 69.2424C55.3997 68.5704 56.7437 68.2344 58.2317 68.2344C59.7197 68.2344 61.0637 68.5344 62.2637 69.1344C63.4637 69.7344 64.4117 70.5744 65.1077 71.6544C65.8037 72.7344 66.1517 73.9944 66.1517 75.4344L66.0077 77.7024H55.1717C55.1717 80.0784 55.5317 81.7704 56.2517 82.7784C56.9957 83.7624 57.9557 84.2544 59.1317 84.2544C60.3797 84.2544 61.3877 83.9664 62.1557 83.3904C62.9477 82.8144 63.6557 82.1064 64.2797 81.2664L65.3957 82.0944C65.0597 82.6224 64.6037 83.1864 64.0277 83.7864C63.4757 84.3624 62.7557 84.8544 61.8677 85.2624C61.0037 85.6704 59.9117 85.8744 58.5917 85.8744ZM55.1717 76.0824H61.2917C61.2917 73.7064 61.0037 72.0744 60.4277 71.1864C59.8757 70.2984 59.1437 69.8544 58.2317 69.8544C57.7037 69.8544 57.1997 70.0464 56.7197 70.4304C56.2637 70.8144 55.8917 71.4624 55.6037 72.3744C55.3157 73.2624 55.1717 74.4984 55.1717 76.0824ZM71.4001 85.5144V66.4344C71.4001 65.3544 71.2441 64.4904 70.9321 63.8424C70.6441 63.1704 69.9601 62.8344 68.8801 62.8344H68.5201V61.7544H72.8401C73.6801 61.7544 74.3281 61.8984 74.7841 62.1864C75.2641 62.4744 75.6001 62.9544 75.7921 63.6264C75.9841 64.2984 76.0801 65.2344 76.0801 66.4344V85.5144H71.4001ZM82.4813 85.5144V66.4344C82.4813 65.3544 82.3253 64.4904 82.0133 63.8424C81.7253 63.1704 81.0413 62.8344 79.9613 62.8344H79.6013V61.7544H83.9213C84.7613 61.7544 85.4093 61.8984 85.8653 62.1864C86.3453 62.4744 86.6813 62.9544 86.8733 63.6264C87.0653 64.2984 87.1613 65.2344 87.1613 66.4344V85.5144H82.4813ZM100.871 85.8744C99.1906 85.8744 97.7266 85.4904 96.4786 84.7224C95.2306 83.9544 94.2706 82.9104 93.5986 81.5904C92.9266 80.2464 92.5906 78.7344 92.5906 77.0544C92.5906 75.1344 92.9386 73.5264 93.6346 72.2304C94.3306 70.9104 95.2786 69.9144 96.4786 69.2424C97.6786 68.5704 99.0226 68.2344 100.511 68.2344C101.999 68.2344 103.343 68.5344 104.543 69.1344C105.743 69.7344 106.691 70.5744 107.387 71.6544C108.083 72.7344 108.431 73.9944 108.431 75.4344L108.287 77.7024H97.4506C97.4506 80.0784 97.8106 81.7704 98.5306 82.7784C99.2746 83.7624 100.235 84.2544 101.411 84.2544C102.659 84.2544 103.667 83.9664 104.435 83.3904C105.227 82.8144 105.935 82.1064 106.559 81.2664L107.675 82.0944C107.339 82.6224 106.883 83.1864 106.307 83.7864C105.755 84.3624 105.035 84.8544 104.147 85.2624C103.283 85.6704 102.191 85.8744 100.871 85.8744ZM97.4506 76.0824H103.571C103.571 73.7064 103.283 72.0744 102.707 71.1864C102.155 70.2984 101.423 69.8544 100.511 69.8544C99.9826 69.8544 99.4786 70.0464 98.9986 70.4304C98.5426 70.8144 98.1706 71.4624 97.8826 72.3744C97.5946 73.2624 97.4506 74.4984 97.4506 76.0824ZM114.255 85.5144V73.2744C114.255 72.1944 114.111 71.3304 113.823 70.6824C113.535 70.0104 112.851 69.6744 111.771 69.6744H111.411V68.5944H114.975C115.791 68.5944 116.427 68.7024 116.883 68.9184C117.363 69.1104 117.735 69.4464 117.999 69.9264C118.431 69.5424 119.019 69.1704 119.763 68.8104C120.531 68.4264 121.455 68.2344 122.535 68.2344C123.063 68.2344 123.543 68.2944 123.975 68.4144C124.407 68.5344 124.779 68.7144 125.091 68.9544C125.499 69.2424 125.799 69.5904 125.991 69.9984C126.207 70.4064 126.315 70.5984 126.315 70.5744L124.479 71.9784C124.263 71.6664 123.939 71.3544 123.507 71.0424C123.099 70.7304 122.595 70.5744 121.995 70.5744C121.227 70.5744 120.579 70.6824 120.051 70.8984C119.523 71.1144 119.103 71.3784 118.791 71.6904C118.839 72.1224 118.875 72.4704 118.899 72.7344C118.923 72.9984 118.935 73.2264 118.935 73.4184V85.5144H114.255ZM136.466 85.8744C134.978 85.8744 133.754 85.7424 132.794 85.4784C131.858 85.2144 131.15 84.8544 130.67 84.3984C130.238 83.9904 129.986 83.4024 129.914 82.6344C129.842 81.8664 129.806 81.0264 129.806 80.1144H131.066C131.258 81.2664 131.726 82.2504 132.47 83.0664C133.214 83.8584 134.306 84.2544 135.746 84.2544C137.09 84.2544 138.026 84.0264 138.554 83.5704C139.082 83.0904 139.346 82.5024 139.346 81.8064C139.346 81.1104 139.034 80.5584 138.41 80.1504C137.786 79.7184 137.018 79.2984 136.106 78.8904L134.234 78.0984C132.794 77.4744 131.666 76.7664 130.85 75.9744C130.034 75.1824 129.626 74.1984 129.626 73.0224C129.626 71.4624 130.274 70.2744 131.57 69.4584C132.866 68.6424 134.498 68.2344 136.466 68.2344C137.954 68.2344 139.166 68.3664 140.102 68.6304C141.062 68.8944 141.782 69.2544 142.262 69.7104C142.694 70.1184 142.946 70.7064 143.018 71.4744C143.09 72.2424 143.126 73.0824 143.126 73.9944H141.866C141.674 72.8424 141.206 71.8704 140.462 71.0784C139.718 70.2624 138.626 69.8544 137.186 69.8544C136.106 69.8544 135.326 70.0944 134.846 70.5744C134.366 71.0304 134.126 71.6064 134.126 72.3024C134.126 72.9504 134.354 73.4784 134.81 73.8864C135.266 74.2704 135.89 74.6304 136.682 74.9664L138.842 75.8664C140.498 76.5624 141.746 77.2944 142.586 78.0624C143.426 78.8064 143.846 79.8144 143.846 81.0864C143.846 82.6464 143.15 83.8344 141.758 84.6504C140.366 85.4664 138.602 85.8744 136.466 85.8744Z" fill="#262626"/>
</svg>
