<svg width="200" height="145" viewBox="0 0 200 145" fill="none" xmlns="http://www.w3.org/2000/svg">
<path d="M115.136 2.07918C143.148 20.7037 134.934 50.6648 141.186 66.68C141.493 67.4898 141.002 68.4795 140.389 68.2096C113.114 58.3125 113.727 11.9762 114.094 2.97891C114.156 2.25912 114.707 1.80926 115.136 2.07918V2.07918Z" stroke="#98AB3F" stroke-width="2" stroke-linecap="round" stroke-linejoin="round"/>
<path d="M114.523 2.07886C114.523 2.07886 122.246 47.2455 141.064 67.9393" stroke="#98AB3F" stroke-linecap="round" stroke-linejoin="round"/>
<path d="M160.616 8.46727C167.971 44.7265 150.564 53.5439 147.009 68.1196C146.825 68.8394 146.151 68.9293 145.906 68.2096C135.241 37.3487 155.59 12.5161 159.697 8.0174C160.065 7.56753 160.494 7.83745 160.616 8.46727V8.46727Z" stroke="#98AB3F" stroke-width="2" stroke-linecap="round" stroke-linejoin="round"/>
<path d="M160.31 7.83691C160.31 7.83691 145.047 39.8674 146.396 68.6589" stroke="#98AB3F" stroke-linecap="round" stroke-linejoin="round"/>
<path d="M172.813 59.1223C166.929 70.8188 161.045 70.189 156.264 69.6491C154.303 69.3792 152.587 69.1993 151.115 69.9191C151.034 69.979 150.932 69.979 150.809 69.9191C150.564 69.9191 150.319 69.7391 150.135 69.4692C149.89 69.1093 149.828 68.4795 150.012 68.0296C155.712 51.0246 169.626 55.8832 172.323 57.0529C172.629 57.1428 172.875 57.5027 172.936 57.8626C173.059 58.3125 172.997 58.7624 172.813 59.1223Z" fill="#98AB3F"/>
<path d="M40.0064 107.063C30.1955 137.609 11.4729 130.166 1.98895 137.512C1.4984 137.899 0.926097 137.415 1.00785 136.739C5.5863 107.353 33.8746 106 39.4341 106C39.8429 106 40.1699 106.483 40.0064 107.063V107.063Z" stroke="#98AB3F" stroke-width="2" stroke-linecap="round" stroke-linejoin="round"/>
<path d="M39.9247 106.386C39.9247 106.386 12.781 116.633 1.17139 137.415" stroke="#98AB3F" stroke-linecap="round" stroke-linejoin="round"/>
<path d="M45.484 107.16C55.295 117.406 54.0686 126.686 53.0058 134.129C52.597 137.222 52.597 139.252 52.6787 142.248C52.6787 142.345 52.7605 142.538 52.6787 142.732C52.6787 143.118 52.6787 143.505 52.3517 143.892C51.9429 144.472 51.2889 144.085 50.7983 143.795C36.1636 133.259 42.132 111.896 43.5218 107.643C43.6036 107.256 43.9306 106.483 44.2577 106.386C44.6665 106.29 45.157 106.773 45.484 107.16V107.16Z" fill="#98AB3F"/>
<path d="M67.808 61.48C66.128 61.48 64.696 61.12 63.512 60.4C62.328 59.68 61.424 58.704 60.8 57.472C60.192 56.24 59.888 54.856 59.888 53.32C59.888 52.104 60.08 50.976 60.464 49.936C60.864 48.88 61.424 47.96 62.144 47.176C62.864 46.392 63.704 45.784 64.664 45.352C65.624 44.904 66.672 44.68 67.808 44.68C69.312 44.68 70.52 44.88 71.432 45.28C72.36 45.664 73.048 46.112 73.496 46.624C73.816 47.04 74 47.576 74.048 48.232C74.096 48.888 74.12 49.568 74.12 50.272H73.4C73.096 48.816 72.536 47.704 71.72 46.936C70.92 46.152 69.856 45.76 68.528 45.76C67.552 45.76 66.664 45.984 65.864 46.432C65.064 46.88 64.424 47.656 63.944 48.76C63.48 49.848 63.248 51.368 63.248 53.32C63.248 54.232 63.344 55.112 63.536 55.96C63.728 56.808 64.032 57.568 64.448 58.24C64.88 58.912 65.424 59.44 66.08 59.824C66.752 60.208 67.568 60.4 68.528 60.4C69.632 60.4 70.656 60.112 71.6 59.536C72.544 58.944 73.304 58.088 73.88 56.968L74.72 57.616C73.968 58.944 73.048 59.92 71.96 60.544C70.872 61.168 69.488 61.48 67.808 61.48ZM81.2651 61.24C80.5931 61.24 80.0011 61.16 79.4891 61C78.9931 60.84 78.5691 60.624 78.2171 60.352C77.8811 60.064 77.6251 59.72 77.4491 59.32C77.2731 58.92 77.1851 58.48 77.1851 58C77.1851 57.232 77.3611 56.584 77.7131 56.056C78.0811 55.512 78.7371 55.104 79.6811 54.832C80.6251 54.544 81.9531 54.4 83.6651 54.4H84.0251C84.0251 53.44 83.9371 52.68 83.7611 52.12C83.5851 51.56 83.3211 51.16 82.9691 50.92C82.6331 50.68 82.2251 50.56 81.7451 50.56C81.2011 50.56 80.7131 50.696 80.2811 50.968C79.8491 51.24 79.5371 51.824 79.3451 52.72H78.0251C78.0251 52.304 78.0491 51.88 78.0971 51.448C78.1611 51.016 78.3371 50.64 78.6251 50.32C78.9131 50 79.3851 49.784 80.0411 49.672C80.7131 49.544 81.4411 49.48 82.2251 49.48C83.0091 49.48 83.7051 49.584 84.3131 49.792C84.9211 50 85.4331 50.312 85.8491 50.728C86.2811 51.144 86.6011 51.672 86.8091 52.312C87.0331 52.936 87.1451 53.672 87.1451 54.52V61H85.1051L84.2651 59.92H84.1451C83.9371 60.256 83.5851 60.56 83.0891 60.832C82.5931 61.104 81.9851 61.24 81.2651 61.24ZM81.9851 60.04C82.5131 60.04 82.9531 59.864 83.3051 59.512C83.6571 59.16 83.8971 58.816 84.0251 58.48V55.48H83.6651C82.5131 55.48 81.6811 55.688 81.1691 56.104C80.6731 56.52 80.4251 57.152 80.4251 58C80.4251 58.672 80.5611 59.184 80.8331 59.536C81.1211 59.872 81.5051 60.04 81.9851 60.04ZM91.5153 61V52.84C91.5153 52.12 91.4193 51.544 91.2273 51.112C91.0353 50.664 90.5793 50.44 89.8593 50.44H89.6193V49.72H91.9953C92.5393 49.72 92.9633 49.792 93.2673 49.936C93.5873 50.064 93.8353 50.288 94.0113 50.608C94.2993 50.352 94.6913 50.104 95.1873 49.864C95.6993 49.608 96.3153 49.48 97.0353 49.48C97.3873 49.48 97.7073 49.52 97.9953 49.6C98.2833 49.68 98.5313 49.8 98.7393 49.96C99.0113 50.152 99.2113 50.384 99.3393 50.656C99.4833 50.928 99.5553 51.056 99.5553 51.04L98.3313 51.976C98.1873 51.768 97.9713 51.56 97.6833 51.352C97.4113 51.144 97.0753 51.04 96.6753 51.04C96.1633 51.04 95.7313 51.112 95.3793 51.256C95.0273 51.4 94.7473 51.576 94.5393 51.784C94.5713 52.072 94.5953 52.304 94.6113 52.48C94.6273 52.656 94.6353 52.808 94.6353 52.936V61H91.5153ZM106.251 61.24C105.163 61.24 104.307 60.944 103.683 60.352C103.075 59.76 102.771 58.888 102.771 57.736V50.8H101.331V49.72H102.771V47.56L103.971 46.12H105.891V49.72H108.531V50.8H105.891V57.88C105.891 58.776 105.995 59.384 106.203 59.704C106.427 60.008 106.739 60.16 107.139 60.16C107.555 60.16 107.923 60.088 108.243 59.944C108.563 59.8 108.827 59.656 109.035 59.512L109.371 60.184C109.051 60.472 108.635 60.72 108.123 60.928C107.611 61.136 106.987 61.24 106.251 61.24Z" fill="#262626"/>
<path d="M10.828 98.4044C9.844 98.4044 8.872 98.3084 7.912 98.1164C6.952 97.9244 6.076 97.6484 5.284 97.2884C4.492 96.9044 3.856 96.4484 3.376 95.9204C2.92 95.3684 2.692 94.7564 2.692 94.0844V89.8724H3.7C4.084 92.3684 4.852 94.1444 6.004 95.2004C7.18 96.2564 8.776 96.7844 10.792 96.7844C11.704 96.7844 12.496 96.6524 13.168 96.3884C13.864 96.1244 14.392 95.7404 14.752 95.2364C15.136 94.7084 15.328 94.0604 15.328 93.2924C15.328 92.2604 14.992 91.4084 14.32 90.7364C13.672 90.0404 12.772 89.3444 11.62 88.6484L7.192 85.9844C5.56 85.0244 4.408 84.0404 3.736 83.0324C3.064 82.0244 2.728 80.8604 2.728 79.5404C2.728 77.6444 3.448 76.1444 4.888 75.0404C6.352 73.9364 8.32 73.3844 10.792 73.3844C11.776 73.3844 12.748 73.4804 13.708 73.6724C14.668 73.8644 15.544 74.1524 16.336 74.5364C17.128 74.8964 17.752 75.3404 18.208 75.8684C18.688 76.3964 18.928 77.0084 18.928 77.7044V81.9164H17.92C17.512 79.4204 16.744 77.6444 15.616 76.5884C14.488 75.5324 13.012 75.0044 11.188 75.0044C10.324 75.0044 9.568 75.1484 8.92 75.4364C8.296 75.7244 7.816 76.1324 7.48 76.6604C7.144 77.1644 6.976 77.7764 6.976 78.4964C6.976 79.5044 7.312 80.3204 7.984 80.9444C8.68 81.5684 9.592 82.2164 10.72 82.8884L15.148 85.5164C16.78 86.4764 17.968 87.4244 18.712 88.3604C19.48 89.2724 19.864 90.3884 19.864 91.7084C19.864 93.7724 19.084 95.4044 17.524 96.6044C15.964 97.8044 13.732 98.4044 10.828 98.4044ZM25.1397 97.7924V78.7124C25.1397 77.6324 24.9837 76.7684 24.6717 76.1204C24.3837 75.4484 23.6997 75.1124 22.6197 75.1124H22.2597V74.0324H26.5797C27.4197 74.0324 28.0677 74.1764 28.5237 74.4644C29.0037 74.7524 29.3397 75.2324 29.5317 75.9044C29.7237 76.5764 29.8197 77.5124 29.8197 78.7124V81.8804C30.2277 81.5684 30.7797 81.2684 31.4757 80.9804C32.1957 80.6684 32.9637 80.5124 33.7797 80.5124C34.5957 80.5124 35.3997 80.6084 36.1917 80.8004C37.0077 80.9924 37.7517 81.3404 38.4237 81.8444C39.0957 82.3244 39.6237 82.9964 40.0077 83.8604C40.4157 84.7004 40.6197 85.7804 40.6197 87.1004V97.7924H35.9397V87.2804C35.9397 86.0324 35.7837 85.0484 35.4717 84.3284C35.1837 83.6084 34.7877 83.0924 34.2837 82.7804C33.8037 82.4684 33.2757 82.3124 32.6997 82.3124C32.0757 82.3124 31.4997 82.4684 30.9717 82.7804C30.4677 83.0924 30.0837 83.3564 29.8197 83.5724V97.7924H25.1397ZM54.2977 98.1524C52.5217 98.1524 50.9857 97.7684 49.6897 97.0004C48.3937 96.2084 47.3977 95.1404 46.7017 93.7964C46.0057 92.4524 45.6577 90.9644 45.6577 89.3324C45.6577 87.6764 46.0057 86.1884 46.7017 84.8684C47.3977 83.5244 48.3937 82.4684 49.6897 81.7004C50.9857 80.9084 52.5217 80.5124 54.2977 80.5124C56.0977 80.5124 57.6337 80.9084 58.9057 81.7004C60.2017 82.4684 61.1977 83.5244 61.8937 84.8684C62.5897 86.1884 62.9377 87.6764 62.9377 89.3324C62.9377 90.9644 62.5897 92.4524 61.8937 93.7964C61.1977 95.1404 60.2017 96.2084 58.9057 97.0004C57.6337 97.7684 56.0977 98.1524 54.2977 98.1524ZM54.2977 96.5324C55.1377 96.5324 55.8337 96.2204 56.3857 95.5964C56.9617 94.9724 57.3817 94.1204 57.6457 93.0404C57.9337 91.9364 58.0777 90.7004 58.0777 89.3324C58.0777 87.9404 57.9337 86.7044 57.6457 85.6244C57.3817 84.5444 56.9617 83.6924 56.3857 83.0684C55.8337 82.4444 55.1377 82.1324 54.2977 82.1324C53.4577 82.1324 52.7497 82.4444 52.1737 83.0684C51.6217 83.6924 51.2017 84.5444 50.9137 85.6244C50.6497 86.7044 50.5177 87.9404 50.5177 89.3324C50.5177 90.7004 50.6497 91.9364 50.9137 93.0404C51.2017 94.1204 51.6217 94.9724 52.1737 95.5964C52.7497 96.2204 53.4577 96.5324 54.2977 96.5324ZM68.905 104.632V85.5524C68.905 84.4724 68.761 83.6084 68.473 82.9604C68.185 82.2884 67.501 81.9524 66.421 81.9524H66.061V80.8724H69.625C70.441 80.8724 71.077 80.9804 71.533 81.1964C72.013 81.4124 72.385 81.8084 72.649 82.3844C73.081 82.0004 73.693 81.5924 74.485 81.1604C75.277 80.7284 76.297 80.5124 77.545 80.5124C79.225 80.5124 80.617 80.9084 81.721 81.7004C82.849 82.4684 83.689 83.5244 84.241 84.8684C84.817 86.1884 85.105 87.6764 85.105 89.3324C85.105 90.9644 84.817 92.4524 84.241 93.7964C83.689 95.1404 82.837 96.2084 81.685 97.0004C80.557 97.7684 79.117 98.1524 77.365 98.1524C76.573 98.1524 75.829 98.0324 75.133 97.7924C74.461 97.5764 73.945 97.3364 73.585 97.0724V104.632H68.905ZM76.645 96.5324C77.557 96.5324 78.265 96.2204 78.769 95.5964C79.297 94.9724 79.669 94.1204 79.885 93.0404C80.125 91.9364 80.245 90.7004 80.245 89.3324C80.245 87.9404 80.125 86.7044 79.885 85.6244C79.669 84.5444 79.309 83.6924 78.805 83.0684C78.325 82.4444 77.665 82.1324 76.825 82.1324C76.009 82.1324 75.349 82.2644 74.845 82.5284C74.341 82.7924 73.921 83.0684 73.585 83.3564V95.4524C73.873 95.6924 74.305 95.9324 74.881 96.1724C75.457 96.4124 76.045 96.5324 76.645 96.5324ZM91.1308 104.632V85.5524C91.1308 84.4724 90.9868 83.6084 90.6988 82.9604C90.4108 82.2884 89.7268 81.9524 88.6468 81.9524H88.2868V80.8724H91.8508C92.6668 80.8724 93.3028 80.9804 93.7588 81.1964C94.2388 81.4124 94.6108 81.8084 94.8748 82.3844C95.3068 82.0004 95.9188 81.5924 96.7108 81.1604C97.5028 80.7284 98.5228 80.5124 99.7708 80.5124C101.451 80.5124 102.843 80.9084 103.947 81.7004C105.075 82.4684 105.915 83.5244 106.467 84.8684C107.043 86.1884 107.331 87.6764 107.331 89.3324C107.331 90.9644 107.043 92.4524 106.467 93.7964C105.915 95.1404 105.063 96.2084 103.911 97.0004C102.783 97.7684 101.343 98.1524 99.5908 98.1524C98.7988 98.1524 98.0548 98.0324 97.3588 97.7924C96.6868 97.5764 96.1708 97.3364 95.8108 97.0724V104.632H91.1308ZM98.8708 96.5324C99.7828 96.5324 100.491 96.2204 100.995 95.5964C101.523 94.9724 101.895 94.1204 102.111 93.0404C102.351 91.9364 102.471 90.7004 102.471 89.3324C102.471 87.9404 102.351 86.7044 102.111 85.6244C101.895 84.5444 101.535 83.6924 101.031 83.0684C100.551 82.4444 99.8908 82.1324 99.0508 82.1324C98.2348 82.1324 97.5748 82.2644 97.0708 82.5284C96.5668 82.7924 96.1468 83.0684 95.8108 83.3564V95.4524C96.0988 95.6924 96.5308 95.9324 97.1068 96.1724C97.6828 96.4124 98.2708 96.5324 98.8708 96.5324ZM113.321 97.7924V85.5524C113.321 84.4724 113.165 83.6084 112.853 82.9604C112.565 82.2884 111.881 81.9524 110.801 81.9524H110.441V80.8724H114.761C115.601 80.8724 116.249 81.0164 116.705 81.3044C117.185 81.5924 117.521 82.0724 117.713 82.7444C117.905 83.4164 118.001 84.3524 118.001 85.5524V97.7924H113.321ZM115.661 78.9284C114.749 78.9284 114.065 78.6524 113.609 78.1004C113.177 77.5484 112.961 76.9124 112.961 76.1924C112.961 75.5684 113.153 75.0764 113.537 74.7164C113.921 74.3564 114.389 74.1764 114.941 74.1764C115.853 74.1764 116.525 74.4524 116.957 75.0044C117.413 75.5564 117.641 76.1924 117.641 76.9124C117.641 77.5364 117.449 78.0284 117.065 78.3884C116.681 78.7484 116.213 78.9284 115.661 78.9284ZM124.754 97.7924V85.5524C124.754 84.4724 124.61 83.6084 124.322 82.9604C124.034 82.2884 123.35 81.9524 122.27 81.9524H121.91V80.8724H125.474C126.29 80.8724 126.926 80.9804 127.382 81.1964C127.862 81.3884 128.234 81.7244 128.498 82.2044C128.93 81.7964 129.542 81.4124 130.334 81.0524C131.15 80.6924 132.29 80.5124 133.754 80.5124C135.266 80.5124 136.526 80.7404 137.534 81.1964C138.542 81.6524 139.298 82.3724 139.802 83.3564C140.33 84.3164 140.594 85.5764 140.594 87.1364V97.7924H135.914V87.1004C135.914 85.9244 135.758 84.9884 135.446 84.2924C135.158 83.5964 134.762 83.0924 134.258 82.7804C133.754 82.4684 133.166 82.3124 132.494 82.3124C131.822 82.3124 131.222 82.3964 130.694 82.5644C130.19 82.7324 129.77 82.9484 129.434 83.2124V97.7924H124.754ZM153.705 104.992C152.025 104.992 150.513 104.812 149.169 104.452C147.849 104.116 146.805 103.54 146.037 102.724C145.269 101.908 144.885 100.804 144.885 99.4125C144.885 98.5484 145.125 97.8044 145.605 97.1804C146.109 96.5564 146.733 96.0404 147.477 95.6324C148.221 95.2244 148.977 94.9244 149.745 94.7324C149.289 94.5884 148.905 94.3604 148.593 94.0484C148.281 93.7364 148.125 93.3044 148.125 92.7524C148.125 92.3444 148.245 91.9964 148.485 91.7084C148.725 91.3964 149.085 91.1444 149.565 90.9524C148.557 90.5924 147.705 89.9804 147.009 89.1164C146.313 88.2284 145.965 87.2324 145.965 86.1284C145.965 84.7364 146.313 83.6324 147.009 82.8164C147.705 82.0004 148.629 81.4124 149.781 81.0524C150.957 80.6924 152.265 80.5124 153.705 80.5124H161.265V81.4844L158.025 81.9164C159.033 82.3004 159.849 82.8884 160.473 83.6804C161.121 84.4724 161.445 85.2884 161.445 86.1284C161.445 87.4964 161.121 88.5884 160.473 89.4044C159.849 90.2204 158.949 90.8084 157.773 91.1684C156.621 91.5044 155.265 91.6724 153.705 91.6724C152.625 91.6724 151.749 91.7324 151.077 91.8524C150.429 91.9724 150.105 92.2724 150.105 92.7524C150.105 93.1604 150.429 93.4244 151.077 93.5444C151.749 93.6404 152.625 93.7004 153.705 93.7244C155.337 93.7484 156.813 93.9764 158.133 94.4084C159.477 94.8164 160.545 95.4404 161.337 96.2804C162.129 97.0964 162.525 98.1404 162.525 99.4125C162.525 100.804 162.141 101.908 161.373 102.724C160.605 103.54 159.549 104.116 158.205 104.452C156.885 104.812 155.385 104.992 153.705 104.992ZM153.705 103.372C154.905 103.372 155.865 103.048 156.585 102.4C157.305 101.776 157.665 100.78 157.665 99.4125C157.665 98.3324 157.329 97.4444 156.657 96.7484C155.985 96.0524 155.097 95.5964 153.993 95.3804L152.301 95.2004C151.509 95.5364 150.885 96.0404 150.429 96.7124C149.973 97.3604 149.745 98.2604 149.745 99.4125C149.745 100.78 150.105 101.776 150.825 102.4C151.545 103.048 152.505 103.372 153.705 103.372ZM153.705 90.2324C154.545 90.2324 155.229 89.9204 155.757 89.2964C156.309 88.6724 156.585 87.6164 156.585 86.1284C156.585 84.7604 156.309 83.7284 155.757 83.0324C155.229 82.3124 154.545 81.9524 153.705 81.9524C152.865 81.9524 152.169 82.2884 151.617 82.9604C151.089 83.6084 150.825 84.6644 150.825 86.1284C150.825 87.6164 151.089 88.6724 151.617 89.2964C152.169 89.9204 152.865 90.2324 153.705 90.2324Z" fill="#262626"/>
</svg>
