<svg width="187" height="149" viewBox="0 0 187 149" fill="none" xmlns="http://www.w3.org/2000/svg">
<path d="M129.136 2.07918C157.148 20.7037 148.934 50.6648 155.186 66.68C155.493 67.4898 155.002 68.4795 154.389 68.2096C127.114 58.3125 127.727 11.9762 128.094 2.97891C128.156 2.25912 128.707 1.80926 129.136 2.07918V2.07918Z" stroke="#98AB3F" stroke-width="2" stroke-linecap="round" stroke-linejoin="round"/>
<path d="M128.524 2.07886C128.524 2.07886 136.247 47.2455 155.064 67.9393" stroke="#98AB3F" stroke-linecap="round" stroke-linejoin="round"/>
<path d="M174.616 8.46733C181.971 44.7266 164.564 53.544 161.009 68.1197C160.825 68.8394 160.151 68.9294 159.906 68.2096C149.241 37.3488 169.59 12.5161 173.697 8.01746C174.065 7.56759 174.494 7.83751 174.616 8.46733V8.46733Z" stroke="#98AB3F" stroke-width="2" stroke-linecap="round" stroke-linejoin="round"/>
<path d="M174.31 7.83704C174.31 7.83704 159.048 39.8675 160.396 68.659" stroke="#98AB3F" stroke-linecap="round" stroke-linejoin="round"/>
<path d="M186.814 59.1223C180.929 70.8189 175.045 70.189 170.264 69.6492C168.303 69.3793 166.587 69.1993 165.116 69.9191C165.034 69.9791 164.932 69.9791 164.809 69.9191C164.564 69.9191 164.319 69.7392 164.135 69.4693C163.89 69.1094 163.829 68.4796 164.012 68.0297C169.713 51.0247 183.626 55.8833 186.323 57.0529C186.63 57.1429 186.875 57.5028 186.936 57.8627C187.059 58.3126 186.997 58.7624 186.814 59.1223Z" fill="#98AB3F"/>
<path d="M40.0064 111.063C30.1955 141.609 11.4729 134.166 1.98895 141.512C1.4984 141.899 0.926097 141.415 1.00785 140.739C5.5863 111.353 33.8746 110 39.4341 110C39.8429 110 40.1699 110.483 40.0064 111.063V111.063Z" stroke="#98AB3F" stroke-width="2" stroke-linecap="round" stroke-linejoin="round"/>
<path d="M39.9247 110.386C39.9247 110.386 12.781 120.633 1.17136 141.415" stroke="#98AB3F" stroke-linecap="round" stroke-linejoin="round"/>
<path d="M45.4842 111.16C55.2952 121.406 54.0688 130.686 53.006 138.129C52.5972 141.222 52.5972 143.252 52.6789 146.248C52.6789 146.345 52.7607 146.538 52.6789 146.732C52.6789 147.118 52.6789 147.505 52.3519 147.892C51.9431 148.472 51.289 148.085 50.7985 147.795C36.1638 137.259 42.1321 115.896 43.522 111.643C43.6038 111.256 43.9308 110.483 44.2578 110.386C44.6666 110.29 45.1572 110.773 45.4842 111.16V111.16Z" fill="#98AB3F"/>
<path d="M55.728 59.8738L45.552 47.9218V59.8018H44.352V46.8418C44.352 46.2338 44.2 45.7218 43.896 45.3058C43.608 44.8898 43.04 44.6818 42.192 44.6818H42.072V43.9618H43.752C44.664 43.9618 45.4 44.0818 45.96 44.3218C46.536 44.5618 47.008 44.9218 47.376 45.4018L55.632 55.0018V43.9618H56.832V59.8738H55.728ZM64.5932 60.0418C63.9212 60.0418 63.3292 59.9618 62.8172 59.8018C62.3212 59.6418 61.8972 59.4258 61.5452 59.1538C61.2092 58.8658 60.9532 58.5218 60.7772 58.1218C60.6012 57.7218 60.5132 57.2818 60.5132 56.8018C60.5132 56.0338 60.6892 55.3858 61.0412 54.8578C61.4092 54.3138 62.0652 53.9058 63.0092 53.6338C63.9532 53.3458 65.2812 53.2018 66.9932 53.2018H67.3532C67.3532 52.2418 67.2652 51.4818 67.0892 50.9218C66.9132 50.3618 66.6492 49.9618 66.2972 49.7218C65.9612 49.4818 65.5532 49.3618 65.0732 49.3618C64.5292 49.3618 64.0412 49.4978 63.6092 49.7698C63.1772 50.0418 62.8652 50.6258 62.6732 51.5218H61.3532C61.3532 51.1058 61.3772 50.6818 61.4252 50.2498C61.4892 49.8178 61.6652 49.4418 61.9532 49.1218C62.2412 48.8018 62.7132 48.5858 63.3692 48.4738C64.0412 48.3458 64.7692 48.2818 65.5532 48.2818C66.3372 48.2818 67.0332 48.3858 67.6412 48.5938C68.2492 48.8018 68.7612 49.1138 69.1772 49.5298C69.6092 49.9458 69.9292 50.4738 70.1372 51.1138C70.3612 51.7378 70.4732 52.4738 70.4732 53.3218V59.8018H68.4332L67.5932 58.7218H67.4732C67.2652 59.0578 66.9132 59.3618 66.4172 59.6338C65.9212 59.9058 65.3132 60.0418 64.5932 60.0418ZM65.3132 58.8418C65.8412 58.8418 66.2812 58.6658 66.6332 58.3138C66.9852 57.9618 67.2252 57.6178 67.3532 57.2818V54.2818H66.9932C65.8412 54.2818 65.0092 54.4898 64.4972 54.9058C64.0012 55.3218 63.7532 55.9538 63.7532 56.8018C63.7532 57.4738 63.8892 57.9858 64.1612 58.3378C64.4492 58.6738 64.8332 58.8418 65.3132 58.8418ZM78.3474 60.0418C77.2594 60.0418 76.4034 59.7458 75.7794 59.1538C75.1714 58.5618 74.8674 57.6898 74.8674 56.5378V49.6018H73.4274V48.5218H74.8674V46.3618L76.0674 44.9218H77.9874V48.5218H80.6274V49.6018H77.9874V56.6818C77.9874 57.5778 78.0914 58.1858 78.2994 58.5058C78.5234 58.8098 78.8354 58.9618 79.2354 58.9618C79.6514 58.9618 80.0194 58.8898 80.3394 58.7458C80.6594 58.6018 80.9234 58.4578 81.1314 58.3138L81.4674 58.9858C81.1474 59.2738 80.7314 59.5218 80.2194 59.7298C79.7074 59.9378 79.0834 60.0418 78.3474 60.0418ZM88.7278 60.0418C87.7358 60.0418 86.9038 59.8898 86.2318 59.5858C85.5758 59.2818 85.0878 58.8018 84.7678 58.1458C84.4478 57.4898 84.2878 56.6498 84.2878 55.6258V51.6418C84.2878 50.9218 84.1838 50.3458 83.9758 49.9138C83.7838 49.4658 83.3278 49.2418 82.6078 49.2418H82.3678V48.5218H85.2478C85.8078 48.5218 86.2398 48.6178 86.5438 48.8098C86.8638 49.0018 87.0878 49.3218 87.2158 49.7698C87.3438 50.2178 87.4078 50.8418 87.4078 51.6418V55.6498C87.4078 56.4818 87.4878 57.1378 87.6478 57.6178C87.8078 58.0978 88.0398 58.4418 88.3438 58.6498C88.6478 58.8578 89.0158 58.9618 89.4478 58.9618C89.8318 58.9618 90.1678 58.8738 90.4558 58.6978C90.7438 58.5218 90.9838 58.3138 91.1758 58.0738C91.3678 57.8178 91.5118 57.5938 91.6078 57.4018V48.5218H94.7278V59.8018H92.6878L91.8478 58.7218H91.7278C91.4238 59.0578 91.0238 59.3618 90.5278 59.6338C90.0318 59.9058 89.4318 60.0418 88.7278 60.0418ZM99.2981 59.8018V51.6418C99.2981 50.9218 99.2021 50.3458 99.0101 49.9138C98.8181 49.4658 98.3621 49.2418 97.6421 49.2418H97.4021V48.5218H99.7781C100.322 48.5218 100.746 48.5938 101.05 48.7378C101.37 48.8658 101.618 49.0898 101.794 49.4098C102.082 49.1538 102.474 48.9058 102.97 48.6658C103.482 48.4098 104.098 48.2818 104.818 48.2818C105.17 48.2818 105.49 48.3218 105.778 48.4018C106.066 48.4818 106.314 48.6018 106.522 48.7618C106.794 48.9538 106.994 49.1858 107.122 49.4578C107.266 49.7298 107.338 49.8578 107.338 49.8418L106.114 50.7778C105.97 50.5698 105.754 50.3618 105.466 50.1538C105.194 49.9458 104.858 49.8418 104.458 49.8418C103.946 49.8418 103.514 49.9138 103.162 50.0578C102.81 50.2018 102.53 50.3778 102.322 50.5858C102.354 50.8738 102.378 51.1058 102.394 51.2818C102.41 51.4578 102.418 51.6098 102.418 51.7378V59.8018H99.2981ZM113.385 60.0418C112.713 60.0418 112.121 59.9618 111.609 59.8018C111.113 59.6418 110.689 59.4258 110.337 59.1538C110.001 58.8658 109.745 58.5218 109.569 58.1218C109.393 57.7218 109.305 57.2818 109.305 56.8018C109.305 56.0338 109.481 55.3858 109.833 54.8578C110.201 54.3138 110.857 53.9058 111.801 53.6338C112.745 53.3458 114.073 53.2018 115.785 53.2018H116.145C116.145 52.2418 116.057 51.4818 115.881 50.9218C115.705 50.3618 115.441 49.9618 115.089 49.7218C114.753 49.4818 114.345 49.3618 113.865 49.3618C113.321 49.3618 112.833 49.4978 112.401 49.7698C111.969 50.0418 111.657 50.6258 111.465 51.5218H110.145C110.145 51.1058 110.169 50.6818 110.217 50.2498C110.281 49.8178 110.457 49.4418 110.745 49.1218C111.033 48.8018 111.505 48.5858 112.161 48.4738C112.833 48.3458 113.561 48.2818 114.345 48.2818C115.129 48.2818 115.825 48.3858 116.433 48.5938C117.041 48.8018 117.553 49.1138 117.969 49.5298C118.401 49.9458 118.721 50.4738 118.929 51.1138C119.153 51.7378 119.265 52.4738 119.265 53.3218V59.8018H117.225L116.385 58.7218H116.265C116.057 59.0578 115.705 59.3618 115.209 59.6338C114.713 59.9058 114.105 60.0418 113.385 60.0418ZM114.105 58.8418C114.633 58.8418 115.073 58.6658 115.425 58.3138C115.777 57.9618 116.017 57.6178 116.145 57.2818V54.2818H115.785C114.633 54.2818 113.801 54.4898 113.289 54.9058C112.793 55.3218 112.545 55.9538 112.545 56.8018C112.545 57.4738 112.681 57.9858 112.953 58.3378C113.241 58.6738 113.625 58.8418 114.105 58.8418ZM123.252 59.8018V47.0818C123.252 46.3618 123.148 45.7858 122.94 45.3538C122.748 44.9058 122.292 44.6818 121.572 44.6818H121.332V43.9618H124.212C124.772 43.9618 125.204 44.0578 125.508 44.2498C125.828 44.4418 126.052 44.7618 126.18 45.2098C126.308 45.6578 126.372 46.2818 126.372 47.0818V59.8018H123.252Z" fill="#262626"/>
<path d="M14.212 101.93C11.692 101.93 9.544 101.39 7.768 100.31C5.992 99.2301 4.636 97.7661 3.7 95.9181C2.788 94.0701 2.332 91.9941 2.332 89.6901C2.332 87.8661 2.62 86.1741 3.196 84.6141C3.796 83.0301 4.636 81.6501 5.716 80.4741C6.796 79.2981 8.056 78.3861 9.496 77.7381C10.936 77.0661 12.508 76.7301 14.212 76.7301C16.468 76.7301 18.28 77.0301 19.648 77.6301C21.04 78.2061 22.072 78.8781 22.744 79.6461C23.224 80.2701 23.5 81.0741 23.572 82.0581C23.644 83.0421 23.68 84.0621 23.68 85.1181H22.6C22.144 82.9341 21.304 81.2661 20.08 80.1141C18.88 78.9381 17.284 78.3501 15.292 78.3501C13.828 78.3501 12.496 78.6861 11.296 79.3581C10.096 80.0301 9.136 81.1941 8.416 82.8501C7.72 84.4821 7.372 86.7621 7.372 89.6901C7.372 91.0581 7.516 92.3781 7.804 93.6501C8.092 94.9221 8.548 96.0621 9.172 97.0701C9.82 98.0781 10.636 98.8701 11.62 99.4461C12.628 100.022 13.852 100.31 15.292 100.31C16.948 100.31 18.484 99.8781 19.9 99.0141C21.316 98.1261 22.456 96.8421 23.32 95.1621L24.58 96.1341C23.452 98.1261 22.072 99.5901 20.44 100.526C18.808 101.462 16.732 101.93 14.212 101.93ZM37.1696 101.57C35.3936 101.57 33.8576 101.186 32.5616 100.418C31.2656 99.6261 30.2696 98.5581 29.5736 97.2141C28.8776 95.8701 28.5296 94.3821 28.5296 92.7501C28.5296 91.0941 28.8776 89.6061 29.5736 88.2861C30.2696 86.9421 31.2656 85.8861 32.5616 85.1181C33.8576 84.3261 35.3936 83.9301 37.1696 83.9301C38.9696 83.9301 40.5056 84.3261 41.7776 85.1181C43.0736 85.8861 44.0696 86.9421 44.7656 88.2861C45.4616 89.6061 45.8096 91.0941 45.8096 92.7501C45.8096 94.3821 45.4616 95.8701 44.7656 97.2141C44.0696 98.5581 43.0736 99.6261 41.7776 100.418C40.5056 101.186 38.9696 101.57 37.1696 101.57ZM37.1696 99.9501C38.0096 99.9501 38.7056 99.6381 39.2576 99.0141C39.8336 98.3901 40.2536 97.5381 40.5176 96.4581C40.8056 95.3541 40.9496 94.1181 40.9496 92.7501C40.9496 91.3581 40.8056 90.1221 40.5176 89.0421C40.2536 87.9621 39.8336 87.1101 39.2576 86.4861C38.7056 85.8621 38.0096 85.5501 37.1696 85.5501C36.3296 85.5501 35.6216 85.8621 35.0456 86.4861C34.4936 87.1101 34.0736 87.9621 33.7856 89.0421C33.5216 90.1221 33.3896 91.3581 33.3896 92.7501C33.3896 94.1181 33.5216 95.3541 33.7856 96.4581C34.0736 97.5381 34.4936 98.3901 35.0456 99.0141C35.6216 99.6381 36.3296 99.9501 37.1696 99.9501ZM57.1409 101.57C55.6529 101.57 54.4289 101.438 53.4689 101.174C52.5329 100.91 51.8249 100.55 51.3449 100.094C50.9129 99.6861 50.6609 99.0981 50.5889 98.3301C50.5169 97.5621 50.4809 96.7221 50.4809 95.8101H51.7409C51.9329 96.9621 52.4009 97.9461 53.1449 98.7621C53.8889 99.5541 54.9809 99.9501 56.4209 99.9501C57.7649 99.9501 58.7009 99.7221 59.2289 99.2661C59.7569 98.7861 60.0209 98.1981 60.0209 97.5021C60.0209 96.8061 59.7089 96.2541 59.0849 95.8461C58.4609 95.4141 57.6929 94.9941 56.7809 94.5861L54.9089 93.7941C53.4689 93.1701 52.3409 92.4621 51.5249 91.6701C50.7089 90.8781 50.3009 89.8941 50.3009 88.7181C50.3009 87.1581 50.9489 85.9701 52.2449 85.1541C53.5409 84.3381 55.1729 83.9301 57.1409 83.9301C58.6289 83.9301 59.8409 84.0621 60.7769 84.3261C61.7369 84.5901 62.4569 84.9501 62.9369 85.4061C63.3689 85.8141 63.6209 86.4021 63.6929 87.1701C63.7649 87.9381 63.8009 88.7781 63.8009 89.6901H62.5409C62.3489 88.5381 61.8809 87.5661 61.1369 86.7741C60.3929 85.9581 59.3009 85.5501 57.8609 85.5501C56.7809 85.5501 56.0009 85.7901 55.5209 86.2701C55.0409 86.7261 54.8009 87.3021 54.8009 87.9981C54.8009 88.6461 55.0289 89.1741 55.4849 89.5821C55.9409 89.9661 56.5649 90.3261 57.3569 90.6621L59.5169 91.5621C61.1729 92.2581 62.4209 92.9901 63.2609 93.7581C64.1009 94.5021 64.5209 95.5101 64.5209 96.7821C64.5209 98.3421 63.8249 99.5301 62.4329 100.346C61.0409 101.162 59.2769 101.57 57.1409 101.57ZM70.4167 101.21V88.9701C70.4167 87.8901 70.2727 87.0261 69.9847 86.3781C69.6967 85.7061 69.0127 85.3701 67.9327 85.3701H67.5727V84.2901H71.1367C71.8567 84.2901 72.4807 84.3981 73.0087 84.6141C73.5367 84.8061 73.9327 85.1541 74.1967 85.6581H74.3407C74.7727 85.2741 75.3607 84.8901 76.1047 84.5061C76.8727 84.1221 77.7967 83.9301 78.8767 83.9301C79.7887 83.9301 80.5807 84.0621 81.2527 84.3261C81.9247 84.5661 82.4767 84.8541 82.9087 85.1901C83.3647 85.5021 83.6767 85.7661 83.8447 85.9821C84.3247 85.4541 84.9487 84.9861 85.7167 84.5781C86.4847 84.1461 87.5647 83.9301 88.9567 83.9301C90.3007 83.9301 91.4407 84.1581 92.3767 84.6141C93.3127 85.0701 94.0207 85.7901 94.5007 86.7741C95.0047 87.7341 95.2567 88.9941 95.2567 90.5541V101.21H90.5767V90.5181C90.5767 88.7661 90.3007 87.5301 89.7487 86.8101C89.1967 86.0901 88.5127 85.7301 87.6967 85.7301C87.0247 85.7301 86.4127 85.8621 85.8607 86.1261C85.3327 86.3901 84.9127 86.7141 84.6007 87.0981C84.7927 87.4581 84.9367 87.9501 85.0327 88.5741C85.1287 89.1741 85.1767 89.8341 85.1767 90.5541V101.21H80.4967V90.5181C80.4967 88.7661 80.2207 87.5301 79.6687 86.8101C79.1167 86.0901 78.4327 85.7301 77.6167 85.7301C77.1607 85.7301 76.6927 85.8621 76.2127 86.1261C75.7567 86.3661 75.3847 86.6181 75.0967 86.8821V101.21H70.4167ZM108.691 101.57C107.011 101.57 105.547 101.186 104.299 100.418C103.051 99.6501 102.091 98.6061 101.419 97.2861C100.747 95.9421 100.411 94.4301 100.411 92.7501C100.411 90.8301 100.759 89.2221 101.455 87.9261C102.151 86.6061 103.099 85.6101 104.299 84.9381C105.499 84.2661 106.843 83.9301 108.331 83.9301C109.819 83.9301 111.163 84.2301 112.363 84.8301C113.563 85.4301 114.511 86.2701 115.207 87.3501C115.903 88.4301 116.251 89.6901 116.251 91.1301L116.107 93.3981H105.271C105.271 95.7741 105.631 97.4661 106.351 98.4741C107.095 99.4581 108.055 99.9501 109.231 99.9501C110.479 99.9501 111.487 99.6621 112.255 99.0861C113.047 98.5101 113.755 97.8021 114.379 96.9621L115.495 97.7901C115.159 98.3181 114.703 98.8821 114.127 99.4821C113.575 100.058 112.855 100.55 111.967 100.958C111.103 101.366 110.011 101.57 108.691 101.57ZM105.271 91.7781H111.391C111.391 89.4021 111.103 87.7701 110.527 86.8821C109.975 85.9941 109.243 85.5501 108.331 85.5501C107.803 85.5501 107.299 85.7421 106.819 86.1261C106.363 86.5101 105.991 87.1581 105.703 88.0701C105.415 88.9581 105.271 90.1941 105.271 91.7781ZM127.331 101.57C125.699 101.57 124.415 101.126 123.479 100.238C122.567 99.3501 122.111 98.0421 122.111 96.3141V85.9101H119.951V84.2901H122.111V81.0501L123.911 78.8901H126.791V84.2901H130.751V85.9101H126.791V96.5301C126.791 97.8741 126.947 98.7861 127.259 99.2661C127.595 99.7221 128.063 99.9501 128.663 99.9501C129.287 99.9501 129.839 99.8421 130.319 99.6261C130.799 99.4101 131.195 99.1941 131.507 98.9781L132.011 99.9861C131.531 100.418 130.907 100.79 130.139 101.102C129.371 101.414 128.435 101.57 127.331 101.57ZM136.566 101.21V88.9701C136.566 87.8901 136.41 87.0261 136.098 86.3781C135.81 85.7061 135.126 85.3701 134.046 85.3701H133.686V84.2901H138.006C138.846 84.2901 139.494 84.4341 139.95 84.7221C140.43 85.0101 140.766 85.4901 140.958 86.1621C141.15 86.8341 141.246 87.7701 141.246 88.9701V101.21H136.566ZM138.906 82.3461C137.994 82.3461 137.31 82.0701 136.854 81.5181C136.422 80.9661 136.206 80.3301 136.206 79.6101C136.206 78.9861 136.398 78.4941 136.782 78.1341C137.166 77.7741 137.634 77.5941 138.186 77.5941C139.098 77.5941 139.77 77.8701 140.202 78.4221C140.658 78.9741 140.886 79.6101 140.886 80.3301C140.886 80.9541 140.694 81.4461 140.31 81.8061C139.926 82.1661 139.458 82.3461 138.906 82.3461ZM155.056 101.57C153.136 101.57 151.528 101.174 150.232 100.382C148.96 99.5661 148 98.4861 147.352 97.1421C146.728 95.7981 146.416 94.3341 146.416 92.7501C146.416 91.1421 146.728 89.6781 147.352 88.3581C148 87.0141 148.96 85.9461 150.232 85.1541C151.528 84.3381 153.136 83.9301 155.056 83.9301C156.424 83.9301 157.576 84.0261 158.512 84.2181C159.472 84.4101 160.18 84.7341 160.636 85.1901C161.092 85.6461 161.356 86.2581 161.428 87.0261C161.5 87.7941 161.536 88.8621 161.536 90.2301H160.456C160.36 88.6941 159.88 87.5301 159.016 86.7381C158.176 85.9461 157.036 85.5501 155.596 85.5501C154.732 85.5501 153.976 85.8141 153.328 86.3421C152.68 86.8461 152.176 87.6381 151.816 88.7181C151.456 89.7741 151.276 91.1181 151.276 92.7501C151.276 94.3341 151.444 95.6661 151.78 96.7461C152.116 97.8021 152.608 98.6061 153.256 99.1581C153.928 99.6861 154.768 99.9501 155.776 99.9501C157.024 99.9501 158.032 99.6621 158.8 99.0861C159.592 98.5101 160.3 97.8021 160.924 96.9621L162.04 97.7901C161.704 98.3181 161.248 98.8821 160.672 99.4821C160.12 100.058 159.388 100.55 158.476 100.958C157.588 101.366 156.448 101.57 155.056 101.57ZM173.023 101.57C171.535 101.57 170.311 101.438 169.351 101.174C168.415 100.91 167.707 100.55 167.227 100.094C166.795 99.6861 166.543 99.0981 166.471 98.3301C166.399 97.5621 166.363 96.7221 166.363 95.8101H167.623C167.815 96.9621 168.283 97.9461 169.027 98.7621C169.771 99.5541 170.863 99.9501 172.303 99.9501C173.647 99.9501 174.583 99.7221 175.111 99.2661C175.639 98.7861 175.903 98.1981 175.903 97.5021C175.903 96.8061 175.591 96.2541 174.967 95.8461C174.343 95.4141 173.575 94.9941 172.663 94.5861L170.791 93.7941C169.351 93.1701 168.223 92.4621 167.407 91.6701C166.591 90.8781 166.183 89.8941 166.183 88.7181C166.183 87.1581 166.831 85.9701 168.127 85.1541C169.423 84.3381 171.055 83.9301 173.023 83.9301C174.511 83.9301 175.723 84.0621 176.659 84.3261C177.619 84.5901 178.339 84.9501 178.819 85.4061C179.251 85.8141 179.503 86.4021 179.575 87.1701C179.647 87.9381 179.683 88.7781 179.683 89.6901H178.423C178.231 88.5381 177.763 87.5661 177.019 86.7741C176.275 85.9581 175.183 85.5501 173.743 85.5501C172.663 85.5501 171.883 85.7901 171.403 86.2701C170.923 86.7261 170.683 87.3021 170.683 87.9981C170.683 88.6461 170.911 89.1741 171.367 89.5821C171.823 89.9661 172.447 90.3261 173.239 90.6621L175.399 91.5621C177.055 92.2581 178.303 92.9901 179.143 93.7581C179.983 94.5021 180.403 95.5101 180.403 96.7821C180.403 98.3421 179.707 99.5301 178.315 100.346C176.923 101.162 175.159 101.57 173.023 101.57Z" fill="#262626"/>
</svg>
