<svg width="200" height="146" viewBox="0 0 200 146" fill="none" xmlns="http://www.w3.org/2000/svg">
<path d="M131.136 2.07918C159.148 20.7037 150.934 50.6648 157.186 66.68C157.493 67.4898 157.002 68.4795 156.389 68.2096C129.114 58.3125 129.727 11.9762 130.094 2.97891C130.156 2.25912 130.707 1.80926 131.136 2.07918V2.07918Z" stroke="#98AB3F" stroke-width="2" stroke-linecap="round" stroke-linejoin="round"/>
<path d="M130.524 2.07886C130.524 2.07886 138.247 47.2455 157.064 67.9393" stroke="#98AB3F" stroke-linecap="round" stroke-linejoin="round"/>
<path d="M176.616 8.46727C183.971 44.7265 166.564 53.5439 163.009 68.1196C162.825 68.8394 162.151 68.9293 161.906 68.2096C151.241 37.3487 171.59 12.5161 175.697 8.0174C176.065 7.56753 176.494 7.83745 176.616 8.46727V8.46727Z" stroke="#98AB3F" stroke-width="2" stroke-linecap="round" stroke-linejoin="round"/>
<path d="M176.31 7.83691C176.31 7.83691 161.048 39.8674 162.396 68.6589" stroke="#98AB3F" stroke-linecap="round" stroke-linejoin="round"/>
<path d="M188.814 59.1223C182.929 70.8188 177.045 70.189 172.264 69.6491C170.303 69.3792 168.587 69.1993 167.116 69.9191C167.034 69.9791 166.932 69.9791 166.809 69.9191C166.564 69.9191 166.319 69.7391 166.135 69.4692C165.89 69.1093 165.829 68.4795 166.012 68.0296C171.713 51.0247 185.626 55.8832 188.323 57.0529C188.63 57.1429 188.875 57.5027 188.936 57.8626C189.059 58.3125 188.997 58.7624 188.814 59.1223Z" fill="#98AB3F"/>
<path d="M40.0064 108.063C30.1955 138.609 11.4729 131.166 1.98895 138.512C1.4984 138.899 0.926097 138.415 1.00785 137.739C5.5863 108.353 33.8746 107 39.4341 107C39.8429 107 40.1699 107.483 40.0064 108.063V108.063Z" stroke="#98AB3F" stroke-width="2" stroke-linecap="round" stroke-linejoin="round"/>
<path d="M39.9247 107.387C39.9247 107.387 12.781 117.633 1.17136 138.415" stroke="#98AB3F" stroke-linecap="round" stroke-linejoin="round"/>
<path d="M45.4842 108.16C55.2952 118.406 54.0688 127.686 53.006 135.129C52.5972 138.222 52.5972 140.252 52.6789 143.248C52.6789 143.345 52.7607 143.538 52.6789 143.732C52.6789 144.118 52.6789 144.505 52.3519 144.892C51.9431 145.472 51.289 145.085 50.7985 144.795C36.1638 134.259 42.1321 112.896 43.522 108.643C43.6038 108.256 43.9308 107.483 44.2578 107.386C44.6666 107.29 45.1572 107.773 45.4842 108.16V108.16Z" fill="#98AB3F"/>
<path d="M38.28 53.8962V41.1762C38.28 40.4562 38.176 39.8802 37.968 39.4482C37.776 39.0002 37.32 38.7762 36.6 38.7762H36.36V38.0562H42.96C43.392 38.0562 43.888 38.0882 44.448 38.1522C45.008 38.2002 45.576 38.3122 46.152 38.4882C46.744 38.6642 47.288 38.9282 47.784 39.2802C48.28 39.6322 48.68 40.1042 48.984 40.6962C49.288 41.2722 49.44 42.0002 49.44 42.8802C49.44 43.7122 49.288 44.4082 48.984 44.9682C48.68 45.5122 48.288 45.9522 47.808 46.2882C47.344 46.6242 46.848 46.8802 46.32 47.0562C45.792 47.2322 45.288 47.3522 44.808 47.4162C44.344 47.4642 43.968 47.4882 43.68 47.4882H41.4V53.8962H38.28ZM41.4 46.5282H42.84C43.256 46.5282 43.656 46.4722 44.04 46.3602C44.424 46.2482 44.768 46.0482 45.072 45.7602C45.376 45.4722 45.616 45.0882 45.792 44.6082C45.984 44.1122 46.08 43.4962 46.08 42.7602C46.08 42.0242 45.984 41.4162 45.792 40.9362C45.616 40.4402 45.376 40.0562 45.072 39.7842C44.784 39.4962 44.456 39.2962 44.088 39.1842C43.72 39.0722 43.344 39.0162 42.96 39.0162C42.784 39.0162 42.568 39.0242 42.312 39.0402C42.072 39.0562 41.768 39.1042 41.4 39.1842V46.5282ZM53.1591 53.8962V45.7362C53.1591 45.0162 53.0631 44.4402 52.8711 44.0082C52.6791 43.5602 52.2231 43.3362 51.5031 43.3362H51.2631V42.6162H53.6391C54.1831 42.6162 54.6071 42.6882 54.9111 42.8322C55.2311 42.9602 55.4791 43.1842 55.6551 43.5042C55.9431 43.2482 56.3351 43.0002 56.8311 42.7602C57.3431 42.5042 57.9591 42.3762 58.6791 42.3762C59.0311 42.3762 59.3511 42.4162 59.6391 42.4962C59.9271 42.5762 60.1751 42.6962 60.3831 42.8562C60.6551 43.0482 60.8551 43.2802 60.9831 43.5522C61.1271 43.8242 61.1991 43.9522 61.1991 43.9362L59.9751 44.8722C59.8311 44.6642 59.6151 44.4562 59.3271 44.2482C59.0551 44.0402 58.7191 43.9362 58.3191 43.9362C57.8071 43.9362 57.3751 44.0082 57.0231 44.1522C56.6711 44.2962 56.3911 44.4722 56.1831 44.6802C56.2151 44.9682 56.2391 45.2002 56.2551 45.3762C56.2711 45.5522 56.2791 45.7042 56.2791 45.8322V53.8962H53.1591ZM68.8834 54.1362C67.6994 54.1362 66.6754 53.8802 65.8114 53.3682C64.9474 52.8402 64.2834 52.1282 63.8194 51.2322C63.3554 50.3362 63.1234 49.3442 63.1234 48.2562C63.1234 47.1522 63.3554 46.1602 63.8194 45.2802C64.2834 44.3842 64.9474 43.6802 65.8114 43.1682C66.6754 42.6402 67.6994 42.3762 68.8834 42.3762C70.0834 42.3762 71.1074 42.6402 71.9554 43.1682C72.8194 43.6802 73.4834 44.3842 73.9474 45.2802C74.4114 46.1602 74.6434 47.1522 74.6434 48.2562C74.6434 49.3442 74.4114 50.3362 73.9474 51.2322C73.4834 52.1282 72.8194 52.8402 71.9554 53.3682C71.1074 53.8802 70.0834 54.1362 68.8834 54.1362ZM68.8834 53.0562C69.4434 53.0562 69.9074 52.8482 70.2754 52.4322C70.6594 52.0162 70.9394 51.4482 71.1154 50.7282C71.3074 49.9922 71.4034 49.1682 71.4034 48.2562C71.4034 47.3282 71.3074 46.5042 71.1154 45.7842C70.9394 45.0642 70.6594 44.4962 70.2754 44.0802C69.9074 43.6642 69.4434 43.4562 68.8834 43.4562C68.3234 43.4562 67.8514 43.6642 67.4674 44.0802C67.0994 44.4962 66.8194 45.0642 66.6274 45.7842C66.4514 46.5042 66.3634 47.3282 66.3634 48.2562C66.3634 49.1682 66.4514 49.9922 66.6274 50.7282C66.8194 51.4482 67.0994 52.0162 67.4674 52.4322C67.8514 52.8482 68.3234 53.0562 68.8834 53.0562ZM82.6296 54.1362C81.5096 54.1362 80.5736 53.8802 79.8216 53.3682C79.0856 52.8402 78.5256 52.1282 78.1416 51.2322C77.7736 50.3362 77.5896 49.3442 77.5896 48.2562C77.5896 47.1522 77.7736 46.1602 78.1416 45.2802C78.5256 44.3842 79.1016 43.6802 79.8696 43.1682C80.6376 42.6402 81.5976 42.3762 82.7496 42.3762C83.2936 42.3762 83.7736 42.4562 84.1896 42.6162C84.6216 42.7602 84.9816 42.9202 85.2696 43.0962V41.1762C85.2696 40.4562 85.1656 39.8802 84.9576 39.4482C84.7656 39.0002 84.3096 38.7762 83.5896 38.7762H83.3496V38.0562H86.2296C86.7896 38.0562 87.2216 38.1522 87.5256 38.3442C87.8456 38.5362 88.0696 38.8562 88.1976 39.3042C88.3256 39.7522 88.3896 40.3762 88.3896 41.1762V53.8962H86.3496L85.5096 52.8162H85.3896C85.1816 53.1362 84.8376 53.4402 84.3576 53.7282C83.8936 54.0002 83.3176 54.1362 82.6296 54.1362ZM83.1096 53.0562C83.4936 53.0562 83.8296 52.9682 84.1176 52.7922C84.4056 52.6162 84.6456 52.4082 84.8376 52.1682C85.0296 51.9122 85.1736 51.6882 85.2696 51.4962V44.1762C85.0456 44.0002 84.7576 43.8402 84.4056 43.6962C84.0536 43.5362 83.6616 43.4562 83.2296 43.4562C82.6376 43.4562 82.1656 43.6642 81.8136 44.0802C81.4616 44.4962 81.2056 45.0642 81.0456 45.7842C80.9016 46.5042 80.8296 47.3282 80.8296 48.2562C80.8296 49.1682 80.9016 49.9922 81.0456 50.7282C81.1896 51.4482 81.4296 52.0162 81.7656 52.4322C82.1016 52.8482 82.5496 53.0562 83.1096 53.0562ZM97.1466 54.1362C96.1546 54.1362 95.3226 53.9842 94.6506 53.6802C93.9946 53.3762 93.5066 52.8962 93.1866 52.2402C92.8666 51.5842 92.7066 50.7442 92.7066 49.7202V45.7362C92.7066 45.0162 92.6026 44.4402 92.3946 44.0082C92.2026 43.5602 91.7466 43.3362 91.0266 43.3362H90.7866V42.6162H93.6666C94.2266 42.6162 94.6586 42.7122 94.9626 42.9042C95.2826 43.0962 95.5066 43.4162 95.6346 43.8642C95.7626 44.3122 95.8266 44.9362 95.8266 45.7362V49.7442C95.8266 50.5762 95.9066 51.2322 96.0666 51.7122C96.2266 52.1922 96.4586 52.5362 96.7626 52.7442C97.0666 52.9522 97.4346 53.0562 97.8666 53.0562C98.2506 53.0562 98.5866 52.9682 98.8746 52.7922C99.1626 52.6162 99.4026 52.4082 99.5946 52.1682C99.7866 51.9122 99.9306 51.6882 100.027 51.4962V42.6162H103.147V53.8962H101.107L100.267 52.8162H100.147C99.8426 53.1522 99.4426 53.4562 98.9466 53.7282C98.4506 54.0002 97.8506 54.1362 97.1466 54.1362ZM112.421 54.1362C111.141 54.1362 110.069 53.8722 109.205 53.3442C108.357 52.8002 107.717 52.0802 107.285 51.1842C106.869 50.2882 106.661 49.3122 106.661 48.2562C106.661 47.1842 106.869 46.2082 107.285 45.3282C107.717 44.4322 108.357 43.7202 109.205 43.1922C110.069 42.6482 111.141 42.3762 112.421 42.3762C113.333 42.3762 114.101 42.4402 114.725 42.5682C115.365 42.6962 115.837 42.9122 116.141 43.2162C116.445 43.5202 116.621 43.9282 116.669 44.4402C116.717 44.9522 116.741 45.6642 116.741 46.5762H116.021C115.957 45.5522 115.637 44.7762 115.061 44.2482C114.501 43.7202 113.741 43.4562 112.781 43.4562C112.205 43.4562 111.701 43.6322 111.269 43.9842C110.837 44.3202 110.501 44.8482 110.261 45.5682C110.021 46.2722 109.901 47.1682 109.901 48.2562C109.901 49.3122 110.013 50.2002 110.237 50.9202C110.461 51.6242 110.789 52.1602 111.221 52.5282C111.669 52.8802 112.229 53.0562 112.901 53.0562C113.733 53.0562 114.405 52.8642 114.917 52.4802C115.445 52.0962 115.917 51.6242 116.333 51.0642L117.077 51.6162C116.853 51.9682 116.549 52.3442 116.165 52.7442C115.797 53.1282 115.309 53.4562 114.701 53.7282C114.109 54.0002 113.349 54.1362 112.421 54.1362ZM124.327 54.1362C123.239 54.1362 122.383 53.8402 121.759 53.2482C121.151 52.6562 120.847 51.7842 120.847 50.6322V43.6962H119.407V42.6162H120.847V40.4562L122.047 39.0162H123.967V42.6162H126.607V43.6962H123.967V50.7762C123.967 51.6722 124.071 52.2802 124.279 52.6002C124.503 52.9042 124.815 53.0562 125.215 53.0562C125.631 53.0562 125.999 52.9842 126.319 52.8402C126.639 52.6962 126.903 52.5522 127.111 52.4082L127.447 53.0802C127.127 53.3682 126.711 53.6162 126.199 53.8242C125.687 54.0322 125.063 54.1362 124.327 54.1362Z" fill="#262626"/>
<path d="M14.212 93.5125C11.692 93.5125 9.544 92.9724 7.768 91.8924C5.992 90.8124 4.636 89.3484 3.7 87.5004C2.788 85.6524 2.332 83.5764 2.332 81.2724C2.332 79.4484 2.62 77.7564 3.196 76.1964C3.796 74.6124 4.636 73.2324 5.716 72.0564C6.796 70.8804 8.056 69.9684 9.496 69.3204C10.936 68.6484 12.508 68.3124 14.212 68.3124C16.468 68.3124 18.28 68.6124 19.648 69.2124C21.04 69.7884 22.072 70.4604 22.744 71.2284C23.224 71.8524 23.5 72.6564 23.572 73.6404C23.644 74.6244 23.68 75.6444 23.68 76.7004H22.6C22.144 74.5164 21.304 72.8484 20.08 71.6964C18.88 70.5204 17.284 69.9324 15.292 69.9324C13.828 69.9324 12.496 70.2684 11.296 70.9404C10.096 71.6124 9.136 72.7764 8.416 74.4324C7.72 76.0644 7.372 78.3444 7.372 81.2724C7.372 82.6404 7.516 83.9604 7.804 85.2324C8.092 86.5044 8.548 87.6444 9.172 88.6524C9.82 89.6604 10.636 90.4524 11.62 91.0284C12.628 91.6044 13.852 91.8924 15.292 91.8924C16.948 91.8924 18.484 91.4604 19.9 90.5964C21.316 89.7084 22.456 88.4244 23.32 86.7444L24.58 87.7164C23.452 89.7084 22.072 91.1724 20.44 92.1084C18.808 93.0444 16.732 93.5125 14.212 93.5125ZM34.3976 93.1524C33.3896 93.1524 32.5016 93.0324 31.7336 92.7924C30.9896 92.5524 30.3536 92.2284 29.8256 91.8204C29.3216 91.3884 28.9376 90.8724 28.6736 90.2724C28.4096 89.6724 28.2776 89.0124 28.2776 88.2924C28.2776 87.1404 28.5416 86.1684 29.0696 85.3764C29.6216 84.5604 30.6056 83.9484 32.0216 83.5404C33.4376 83.1084 35.4296 82.8924 37.9976 82.8924H38.5376C38.5376 81.4524 38.4056 80.3124 38.1416 79.4724C37.8776 78.6324 37.4816 78.0324 36.9536 77.6724C36.4496 77.3124 35.8376 77.1324 35.1176 77.1324C34.3016 77.1324 33.5696 77.3364 32.9216 77.7444C32.2736 78.1524 31.8056 79.0284 31.5176 80.3724H29.5376C29.5376 79.7484 29.5736 79.1124 29.6456 78.4644C29.7416 77.8164 30.0056 77.2524 30.4376 76.7724C30.8696 76.2924 31.5776 75.9684 32.5616 75.8004C33.5696 75.6084 34.6616 75.5124 35.8376 75.5124C37.0136 75.5124 38.0576 75.6684 38.9696 75.9804C39.8816 76.2924 40.6496 76.7604 41.2736 77.3844C41.9216 78.0084 42.4016 78.8004 42.7136 79.7604C43.0496 80.6964 43.2176 81.8004 43.2176 83.0724V92.7924H40.1576L38.8976 91.1724H38.7176C38.4056 91.6764 37.8776 92.1324 37.1336 92.5404C36.3896 92.9484 35.4776 93.1524 34.3976 93.1524ZM35.4776 91.3524C36.2696 91.3524 36.9296 91.0884 37.4576 90.5604C37.9856 90.0324 38.3456 89.5164 38.5376 89.0124V84.5124H37.9976C36.2696 84.5124 35.0216 84.8244 34.2536 85.4484C33.5096 86.0724 33.1376 87.0204 33.1376 88.2924C33.1376 89.3004 33.3416 90.0684 33.7496 90.5964C34.1816 91.1004 34.7576 91.3524 35.4776 91.3524ZM55.029 93.1524C53.397 93.1524 52.113 92.7084 51.177 91.8204C50.265 90.9324 49.809 89.6244 49.809 87.8964V77.4924H47.649V75.8724H49.809V72.6324L51.609 70.4724H54.489V75.8724H58.449V77.4924H54.489V88.1124C54.489 89.4564 54.645 90.3684 54.957 90.8484C55.293 91.3044 55.761 91.5324 56.361 91.5324C56.985 91.5324 57.537 91.4244 58.017 91.2084C58.497 90.9924 58.893 90.7764 59.205 90.5604L59.709 91.5684C59.229 92.0004 58.605 92.3724 57.837 92.6844C57.069 92.9964 56.133 93.1524 55.029 93.1524ZM71.0315 93.1524C69.3515 93.1524 67.8875 92.7684 66.6395 92.0004C65.3915 91.2324 64.4315 90.1884 63.7595 88.8684C63.0875 87.5244 62.7515 86.0124 62.7515 84.3324C62.7515 82.4124 63.0995 80.8044 63.7955 79.5084C64.4915 78.1884 65.4395 77.1924 66.6395 76.5204C67.8395 75.8484 69.1835 75.5124 70.6715 75.5124C72.1595 75.5124 73.5035 75.8124 74.7035 76.4124C75.9035 77.0124 76.8515 77.8524 77.5475 78.9324C78.2435 80.0124 78.5915 81.2724 78.5915 82.7124L78.4475 84.9804H67.6115C67.6115 87.3564 67.9715 89.0484 68.6915 90.0564C69.4355 91.0404 70.3955 91.5324 71.5715 91.5324C72.8195 91.5324 73.8275 91.2444 74.5955 90.6684C75.3875 90.0924 76.0955 89.3844 76.7195 88.5444L77.8355 89.3724C77.4995 89.9004 77.0435 90.4644 76.4675 91.0644C75.9155 91.6404 75.1955 92.1324 74.3075 92.5404C73.4435 92.9484 72.3515 93.1524 71.0315 93.1524ZM67.6115 83.3604H73.7315C73.7315 80.9844 73.4435 79.3524 72.8675 78.4644C72.3155 77.5764 71.5835 77.1324 70.6715 77.1324C70.1435 77.1324 69.6395 77.3244 69.1595 77.7084C68.7035 78.0924 68.3315 78.7404 68.0435 79.6524C67.7555 80.5404 67.6115 81.7764 67.6115 83.3604ZM90.8599 99.9925C89.1799 99.9925 87.6679 99.8125 86.3239 99.4525C85.0039 99.1165 83.9599 98.5405 83.1919 97.7245C82.4239 96.9085 82.0399 95.8045 82.0399 94.4125C82.0399 93.5484 82.2799 92.8044 82.7599 92.1804C83.2639 91.5564 83.8879 91.0404 84.6319 90.6324C85.3759 90.2244 86.1319 89.9244 86.8999 89.7324C86.4439 89.5884 86.0599 89.3604 85.7479 89.0484C85.4359 88.7364 85.2799 88.3044 85.2799 87.7524C85.2799 87.3444 85.3999 86.9964 85.6399 86.7084C85.8799 86.3964 86.2399 86.1444 86.7199 85.9524C85.7119 85.5924 84.8599 84.9804 84.1639 84.1164C83.4679 83.2284 83.1199 82.2324 83.1199 81.1284C83.1199 79.7364 83.4679 78.6324 84.1639 77.8164C84.8599 77.0004 85.7839 76.4124 86.9359 76.0524C88.1119 75.6924 89.4199 75.5124 90.8599 75.5124H98.4199V76.4844L95.1799 76.9164C96.1879 77.3004 97.0039 77.8884 97.6279 78.6804C98.2759 79.4724 98.5999 80.2884 98.5999 81.1284C98.5999 82.4964 98.2759 83.5884 97.6279 84.4044C97.0039 85.2204 96.1039 85.8084 94.9279 86.1684C93.7759 86.5044 92.4199 86.6724 90.8599 86.6724C89.7799 86.6724 88.9039 86.7324 88.2319 86.8524C87.5839 86.9724 87.2599 87.2724 87.2599 87.7524C87.2599 88.1604 87.5839 88.4244 88.2319 88.5444C88.9039 88.6404 89.7799 88.7004 90.8599 88.7244C92.4919 88.7484 93.9679 88.9764 95.2879 89.4084C96.6319 89.8164 97.6999 90.4404 98.4919 91.2804C99.2839 92.0964 99.6799 93.1404 99.6799 94.4125C99.6799 95.8045 99.2959 96.9085 98.5279 97.7245C97.7599 98.5405 96.7039 99.1165 95.3599 99.4525C94.0399 99.8125 92.5399 99.9925 90.8599 99.9925ZM90.8599 98.3724C92.0599 98.3724 93.0199 98.0485 93.7399 97.4005C94.4599 96.7765 94.8199 95.7805 94.8199 94.4125C94.8199 93.3324 94.4839 92.4444 93.8119 91.7484C93.1399 91.0524 92.2519 90.5964 91.1479 90.3804L89.4559 90.2004C88.6639 90.5364 88.0399 91.0404 87.5839 91.7124C87.1279 92.3604 86.8999 93.2604 86.8999 94.4125C86.8999 95.7805 87.2599 96.7765 87.9799 97.4005C88.6999 98.0485 89.6599 98.3724 90.8599 98.3724ZM90.8599 85.2324C91.6999 85.2324 92.3839 84.9204 92.9119 84.2964C93.4639 83.6724 93.7399 82.6164 93.7399 81.1284C93.7399 79.7604 93.4639 78.7284 92.9119 78.0324C92.3839 77.3124 91.6999 76.9524 90.8599 76.9524C90.0199 76.9524 89.3239 77.2884 88.7719 77.9604C88.2439 78.6084 87.9799 79.6644 87.9799 81.1284C87.9799 82.6164 88.2439 83.6724 88.7719 84.2964C89.3239 84.9204 90.0199 85.2324 90.8599 85.2324ZM112.116 93.1524C110.34 93.1524 108.804 92.7684 107.508 92.0004C106.212 91.2084 105.216 90.1404 104.52 88.7964C103.824 87.4524 103.476 85.9644 103.476 84.3324C103.476 82.6764 103.824 81.1884 104.52 79.8684C105.216 78.5244 106.212 77.4684 107.508 76.7004C108.804 75.9084 110.34 75.5124 112.116 75.5124C113.916 75.5124 115.452 75.9084 116.724 76.7004C118.02 77.4684 119.016 78.5244 119.712 79.8684C120.408 81.1884 120.756 82.6764 120.756 84.3324C120.756 85.9644 120.408 87.4524 119.712 88.7964C119.016 90.1404 118.02 91.2084 116.724 92.0004C115.452 92.7684 113.916 93.1524 112.116 93.1524ZM112.116 91.5324C112.956 91.5324 113.652 91.2204 114.204 90.5964C114.78 89.9724 115.2 89.1204 115.464 88.0404C115.752 86.9364 115.896 85.7004 115.896 84.3324C115.896 82.9404 115.752 81.7044 115.464 80.6244C115.2 79.5444 114.78 78.6924 114.204 78.0684C113.652 77.4444 112.956 77.1324 112.116 77.1324C111.276 77.1324 110.568 77.4444 109.992 78.0684C109.44 78.6924 109.02 79.5444 108.732 80.6244C108.468 81.7044 108.336 82.9404 108.336 84.3324C108.336 85.7004 108.468 86.9364 108.732 88.0404C109.02 89.1204 109.44 89.9724 109.992 90.5964C110.568 91.2204 111.276 91.5324 112.116 91.5324ZM126.723 92.7924V80.5524C126.723 79.4724 126.579 78.6084 126.291 77.9604C126.003 77.2884 125.319 76.9524 124.239 76.9524H123.879V75.8724H127.443C128.259 75.8724 128.895 75.9804 129.351 76.1964C129.831 76.3884 130.203 76.7244 130.467 77.2044C130.899 76.8204 131.487 76.4484 132.231 76.0884C132.999 75.7044 133.923 75.5124 135.003 75.5124C135.531 75.5124 136.011 75.5724 136.443 75.6924C136.875 75.8124 137.247 75.9924 137.559 76.2324C137.967 76.5204 138.267 76.8684 138.459 77.2764C138.675 77.6844 138.783 77.8764 138.783 77.8524L136.947 79.2564C136.731 78.9444 136.407 78.6324 135.975 78.3204C135.567 78.0084 135.063 77.8524 134.463 77.8524C133.695 77.8524 133.047 77.9604 132.519 78.1764C131.991 78.3924 131.571 78.6564 131.259 78.9684C131.307 79.4004 131.343 79.7484 131.367 80.0124C131.391 80.2764 131.403 80.5044 131.403 80.6964V92.7924H126.723ZM143.534 92.7924V80.5524C143.534 79.4724 143.378 78.6084 143.066 77.9604C142.778 77.2884 142.094 76.9524 141.014 76.9524H140.654V75.8724H144.974C145.814 75.8724 146.462 76.0164 146.918 76.3044C147.398 76.5924 147.734 77.0724 147.926 77.7444C148.118 78.4164 148.214 79.3524 148.214 80.5524V92.7924H143.534ZM145.874 73.9284C144.962 73.9284 144.278 73.6524 143.822 73.1004C143.39 72.5484 143.174 71.9124 143.174 71.1924C143.174 70.5684 143.366 70.0764 143.75 69.7164C144.134 69.3564 144.602 69.1764 145.154 69.1764C146.066 69.1764 146.738 69.4524 147.17 70.0044C147.626 70.5564 147.854 71.1924 147.854 71.9124C147.854 72.5364 147.662 73.0284 147.278 73.3884C146.894 73.7484 146.426 73.9284 145.874 73.9284ZM161.699 93.1524C160.019 93.1524 158.555 92.7684 157.307 92.0004C156.059 91.2324 155.099 90.1884 154.427 88.8684C153.755 87.5244 153.419 86.0124 153.419 84.3324C153.419 82.4124 153.767 80.8044 154.463 79.5084C155.159 78.1884 156.107 77.1924 157.307 76.5204C158.507 75.8484 159.851 75.5124 161.339 75.5124C162.827 75.5124 164.171 75.8124 165.371 76.4124C166.571 77.0124 167.519 77.8524 168.215 78.9324C168.911 80.0124 169.259 81.2724 169.259 82.7124L169.115 84.9804H158.279C158.279 87.3564 158.639 89.0484 159.359 90.0564C160.103 91.0404 161.063 91.5324 162.239 91.5324C163.487 91.5324 164.495 91.2444 165.263 90.6684C166.055 90.0924 166.763 89.3844 167.387 88.5444L168.503 89.3724C168.167 89.9004 167.711 90.4644 167.135 91.0644C166.583 91.6404 165.863 92.1324 164.975 92.5404C164.111 92.9484 163.019 93.1524 161.699 93.1524ZM158.279 83.3604H164.399C164.399 80.9844 164.111 79.3524 163.535 78.4644C162.983 77.5764 162.251 77.1324 161.339 77.1324C160.811 77.1324 160.307 77.3244 159.827 77.7084C159.371 78.0924 158.999 78.7404 158.711 79.6524C158.423 80.5404 158.279 81.7764 158.279 83.3604ZM180.448 93.1524C178.96 93.1524 177.736 93.0204 176.776 92.7564C175.84 92.4924 175.132 92.1324 174.652 91.6764C174.22 91.2684 173.968 90.6804 173.896 89.9124C173.824 89.1444 173.788 88.3044 173.788 87.3924H175.048C175.24 88.5444 175.708 89.5284 176.452 90.3444C177.196 91.1364 178.288 91.5324 179.728 91.5324C181.072 91.5324 182.008 91.3044 182.536 90.8484C183.064 90.3684 183.328 89.7804 183.328 89.0844C183.328 88.3884 183.016 87.8364 182.392 87.4284C181.768 86.9964 181 86.5764 180.088 86.1684L178.216 85.3764C176.776 84.7524 175.648 84.0444 174.832 83.2524C174.016 82.4604 173.608 81.4764 173.608 80.3004C173.608 78.7404 174.256 77.5524 175.552 76.7364C176.848 75.9204 178.48 75.5124 180.448 75.5124C181.936 75.5124 183.148 75.6444 184.084 75.9084C185.044 76.1724 185.764 76.5324 186.244 76.9884C186.676 77.3964 186.928 77.9844 187 78.7524C187.072 79.5204 187.108 80.3604 187.108 81.2724H185.848C185.656 80.1204 185.188 79.1484 184.444 78.3564C183.7 77.5404 182.608 77.1324 181.168 77.1324C180.088 77.1324 179.308 77.3724 178.828 77.8524C178.348 78.3084 178.108 78.8844 178.108 79.5804C178.108 80.2284 178.336 80.7564 178.792 81.1644C179.248 81.5484 179.872 81.9084 180.664 82.2444L182.824 83.1444C184.48 83.8404 185.728 84.5724 186.568 85.3404C187.408 86.0844 187.828 87.0924 187.828 88.3644C187.828 89.9244 187.132 91.1124 185.74 91.9284C184.348 92.7444 182.584 93.1524 180.448 93.1524Z" fill="#262626"/>
</svg>
