<svg xmlns="http://www.w3.org/2000/svg" >
<symbol viewBox="0 0 26 26" id="cart">
    <path d="M0.71875 0C0.167969 0.078125 -0.21875 0.589844 -0.140625 1.140625C-0.0625 1.691406 0.449219 2.078125 1 2L4.46875 2C5.042969 2 5.226563 2.113281 5.375 2.25C5.523438 2.386719 5.710938 2.65625 5.875 3.21875C6.210938 4.355469 10.5625 19.15625 10.5625 19.15625C10.570313 19.1875 10.582031 19.21875 10.59375 19.25C10.59375 19.25 11.703125 22 14.5 22L22.34375 22C22.703125 22.003906 23.039063 21.816406 23.222656 21.503906C23.402344 21.191406 23.402344 20.808594 23.222656 20.496094C23.039063 20.183594 22.703125 19.996094 22.34375 20L14.5 20C13.023438 20 12.4375 18.5 12.4375 18.5C12.4375 18.496094 12.292969 18.035156 12.28125 18L20.40625 18C21.4375 18 21.902344 17.136719 22 16.8125L25.59375 9.09375C26.148438 7.757813 25.859375 6 23.8125 6L9.3125 6C9.144531 6 8.960938 6.042969 8.78125 6.09375C8.421875 4.871094 7.855469 2.902344 7.78125 2.65625C7.570313 1.941406 7.292969 1.269531 6.71875 0.75C6.144531 0.230469 5.351563 0 4.46875 0L1 0C0.96875 0 0.9375 0 0.90625 0C0.875 0 0.84375 0 0.8125 0C0.78125 0 0.75 0 0.71875 0 Z M 9.625 8.0625L13.84375 8.0625L13.84375 9.84375L10.1875 9.84375L9.71875 8.34375C9.6875 8.234375 9.636719 8.136719 9.625 8.0625 Z M 15.15625 8.0625L17.84375 8.0625L17.84375 9.84375L15.15625 9.84375 Z M 19.15625 8.0625L23.78125 8.0625C23.769531 8.132813 23.75 8.195313 23.71875 8.28125L23 9.84375L19.15625 9.84375 Z M 10.59375 11.15625L13.84375 11.15625L13.84375 12.84375L11.125 12.84375 Z M 15.15625 11.15625L17.84375 11.15625L17.84375 12.84375L15.15625 12.84375 Z M 19.15625 11.15625L22.375 11.15625L21.59375 12.84375L19.15625 12.84375 Z M 11.53125 14.15625L13.84375 14.15625L13.84375 15.9375L12.1875 15.9375C12.148438 15.9375 12.125 15.925781 12.09375 15.90625 Z M 15.15625 14.15625L17.84375 14.15625L17.84375 15.9375L15.15625 15.9375 Z M 19.15625 14.15625L21 14.15625L20.15625 15.9375L19.15625 15.9375 Z M 14 22.1875C13 22.1875 12.1875 23 12.1875 24C12.1875 25 13 25.8125 14 25.8125C15 25.8125 15.8125 25 15.8125 24C15.8125 23 15 22.1875 14 22.1875 Z M 20 22.1875C19 22.1875 18.1875 23 18.1875 24C18.1875 25 19 25.8125 20 25.8125C21 25.8125 21.8125 25 21.8125 24C21.8125 23 21 22.1875 20 22.1875Z"/>
</symbol>
<symbol viewBox="0 0 26 26" id="add-cart">
    <path d="M1 0 A 1.0001 1.0001 0 1 0 1 2L4.5 2C5.0333333 2 5.2394832 2.1051321 5.3945312 2.2441406C5.5495794 2.3831492 5.7070265 2.6503717 5.8300781 3.1425781 A 1.0001 1.0001 0 0 0 5.8515625 3.2167969C6.0014931 3.6665887 7.2151197 7.7818044 8.3398438 11.630859C9.4645676 15.479915 10.539063 19.179687 10.539062 19.179688 A 1.0001 1.0001 0 0 0 10.580078 19.292969C10.580078 19.292969 11.733333 22 14.5 22L22.300781 22 A 1.0001 1.0001 0 1 0 22.300781 20L14.5 20C13.08563 20 12.450524 18.56388 12.433594 18.525391C12.431712 18.518916 12.292822 18.039775 12.28125 18L20.400391 18C21.400391 18 21.9 17.100781 22 16.800781L25.599609 9.0996094C26.099609 7.7996094 25.900781 6 23.800781 6L23 6L23 8.0996094L23.800781 8.0996094C23.800781 8.1996094 23.799219 8.2007812 23.699219 8.3007812L20.099609 16L12.199219 16L12.099609 15.900391L9.6992188 8.3007812C9.6992188 8.2007813 9.5996094 8.1 9.5996094 8L11 8L11 6L9.3007812 6C9.1369687 6 8.95965 6.0327797 8.7832031 6.0839844C8.4516663 4.9655178 7.8766933 2.9830373 7.7695312 2.6582031C7.5925828 1.9504095 7.3004207 1.2668508 6.7304688 0.75585938C6.1605168 0.24486793 5.3666667 0 4.5 0L1 0 z M 16 3L16 6L13 6L13 8L16 8L16 11L18 11L18 8L21 8L21 6L18 6L18 3L16 3 z M 14 22.199219 A 1.8 1.8 0 0 0 12.199219 24 A 1.8 1.8 0 0 0 14 25.800781 A 1.8 1.8 0 0 0 15.800781 24 A 1.8 1.8 0 0 0 14 22.199219 z M 20 22.199219 A 1.8 1.8 0 0 0 18.199219 24 A 1.8 1.8 0 0 0 20 25.800781 A 1.8 1.8 0 0 0 21.800781 24 A 1.8 1.8 0 0 0 20 22.199219 z"/>
</symbol>
<symbol viewBox="0 0 26 26" id="heart">
    <path d="M8.125 3.875C6.398438 3.875 4.828125 4.472656 3.71875 5.5625C2.609375 6.652344 2 8.210938 2 10C2 13.027344 3.855469 15.285156 5.96875 17.1875C8.082031 19.089844 10.546875 20.773438 12.21875 22.75C12.402344 22.980469 12.675781 23.117188 12.96875 23.125L13.03125 23.125C13.324219 23.117188 13.597656 22.980469 13.78125 22.75C15.453125 20.773438 17.917969 19.089844 20.03125 17.1875C22.144531 15.285156 24 13.027344 24 10C24 8.210938 23.359375 6.652344 22.25 5.5625C21.140625 4.472656 19.601563 3.875 17.875 3.875C16.164063 3.875 14.761719 4.808594 13.78125 5.65625C13.300781 6.070313 13.277344 6.183594 13 6.5C12.726563 6.183594 12.699219 6.070313 12.21875 5.65625C11.242188 4.808594 9.835938 3.875 8.125 3.875 Z M 8.125 5.875C9.066406 5.875 10.117188 6.503906 10.90625 7.1875C11.695313 7.871094 12.1875 8.53125 12.1875 8.53125C12.375 8.792969 12.679688 8.949219 13 8.949219C13.320313 8.949219 13.625 8.792969 13.8125 8.53125C13.8125 8.53125 14.300781 7.871094 15.09375 7.1875C15.886719 6.503906 16.929688 5.875 17.875 5.875C19.160156 5.875 20.171875 6.3125 20.875 7C21.578125 7.6875 22 8.660156 22 10C22 12.214844 20.660156 13.910156 18.6875 15.6875C16.941406 17.261719 14.808594 18.875 13 20.78125C11.1875 18.867188 9.0625 17.261719 7.3125 15.6875C5.339844 13.910156 4 12.214844 4 10C4 8.660156 4.421875 7.6875 5.125 7C5.828125 6.3125 6.835938 5.875 8.125 5.875Z"/>
</symbol>
<symbol viewBox="0 0 26 26" id="fullheart">
    <path d="M17.867188 3.890625C15.773438 3.890625 13.980469 5.382813 12.996094 6.410156C12.015625 5.382813 10.226563 3.890625 8.132813 3.890625C4.519531 3.890625 2 6.40625 2 10.007813C2 13.980469 5.132813 16.546875 8.160156 19.027344C9.589844 20.199219 11.070313 21.410156 12.203125 22.757813C12.394531 22.980469 12.675781 23.109375 12.96875 23.109375L13.027344 23.109375C13.324219 23.109375 13.601563 22.980469 13.792969 22.757813C14.929688 21.410156 16.40625 20.199219 17.839844 19.027344C20.867188 16.546875 24 13.980469 24 10.007813C24 6.40625 21.480469 3.890625 17.867188 3.890625Z"/>
</symbol>
<symbol viewBox="0 0 26 26" id="eye">
    <path d="M13 6.15625C7.980469 6.15625 3.289063 8.652344 0.46875 12.8125C-0.0585938 13.59375 0.160156 14.628906 0.9375 15.15625C1.230469 15.355469 1.546875 15.46875 1.875 15.46875C2.421875 15.46875 2.984375 15.203125 3.3125 14.71875C3.417969 14.5625 3.546875 14.429688 3.65625 14.28125C4.996094 18.160156 8.664063 20.9375 13 20.9375C17.335938 20.9375 21.003906 18.160156 22.34375 14.28125C22.453125 14.429688 22.582031 14.5625 22.6875 14.71875C23.210938 15.496094 24.28125 15.683594 25.0625 15.15625C25.839844 14.628906 26.058594 13.589844 25.53125 12.8125C22.714844 8.648438 18.019531 6.15625 13 6.15625 Z M 16.96875 10.25C18.636719 10.847656 20.125 11.839844 21.375 13.125C20.441406 16.882813 17.042969 19.6875 13 19.6875C8.957031 19.6875 5.558594 16.882813 4.625 13.125C5.867188 11.847656 7.375 10.882813 9.03125 10.28125C8.496094 11.054688 8.1875 11.988281 8.1875 13C8.1875 15.65625 10.34375 17.8125 13 17.8125C15.65625 17.8125 17.8125 15.65625 17.8125 13C17.8125 11.980469 17.511719 11.027344 16.96875 10.25Z" />
</symbol>
<symbol viewBox="0 0 26 26" id="contacts">
    <path d="M16.5625 15.898438C16.402344 15.847656 15.398438 15.394531 16.027344 13.484375L16.019531 13.484375C17.65625 11.800781 18.90625 9.085938 18.90625 6.414063C18.90625 2.308594 16.175781 0.15625 13 0.15625C9.824219 0.15625 7.109375 2.308594 7.109375 6.414063C7.109375 9.097656 8.351563 11.820313 10 13.503906C10.640625 15.1875 9.492188 15.8125 9.253906 15.898438C5.929688 17.101563 2.03125 19.292969 2.03125 21.457031C2.03125 22.039063 2.03125 21.6875 2.03125 22.269531C2.03125 25.214844 7.742188 25.886719 13.03125 25.886719C18.328125 25.886719 23.96875 25.214844 23.96875 22.269531C23.96875 21.6875 23.96875 22.039063 23.96875 21.457031C23.96875 19.230469 20.050781 17.054688 16.5625 15.898438Z"/>
</symbol>
<symbol viewBox="0 0 26 26" id="facebook">
    <path d="M21.125 0L4.875 0C2.183594 0 0 2.183594 0 4.875L0 21.125C0 23.816406 2.183594 26 4.875 26L21.125 26C23.816406 26 26 23.816406 26 21.125L26 4.875C26 2.183594 23.816406 0 21.125 0 Z M 20.464844 14.003906L18.03125 14.003906L18.03125 23.007813L13.96875 23.007813L13.96875 14.003906L12.390625 14.003906L12.390625 10.96875L13.96875 10.96875L13.96875 9.035156C13.96875 6.503906 15.019531 5 18.007813 5L21.03125 5L21.03125 8.023438L19.273438 8.023438C18.113281 8.023438 18.035156 8.453125 18.035156 9.265625L18.03125 10.96875L20.796875 10.96875Z"/>
</symbol>
<symbol viewBox="0 0 26 26" id="instagram">
    <path d="M7.546875 0C3.390625 0 0 3.390625 0 7.546875L0 18.453125C0 22.609375 3.390625 26 7.546875 26L18.453125 26C22.609375 26 26 22.609375 26 18.453125L26 7.546875C26 3.390625 22.609375 0 18.453125 0 Z M 7.546875 2L18.453125 2C21.527344 2 24 4.46875 24 7.546875L24 18.453125C24 21.527344 21.53125 24 18.453125 24L7.546875 24C4.472656 24 2 21.53125 2 18.453125L2 7.546875C2 4.472656 4.46875 2 7.546875 2 Z M 20.5 4C19.671875 4 19 4.671875 19 5.5C19 6.328125 19.671875 7 20.5 7C21.328125 7 22 6.328125 22 5.5C22 4.671875 21.328125 4 20.5 4 Z M 13 6C9.144531 6 6 9.144531 6 13C6 16.855469 9.144531 20 13 20C16.855469 20 20 16.855469 20 13C20 9.144531 16.855469 6 13 6 Z M 13 8C15.773438 8 18 10.226563 18 13C18 15.773438 15.773438 18 13 18C10.226563 18 8 15.773438 8 13C8 10.226563 10.226563 8 13 8Z"/>
</symbol>
<symbol viewBox="0 0 26 26" id="linkedin">
    <path d="M21.125 0L4.875 0C2.183594 0 0 2.183594 0 4.875L0 21.125C0 23.816406 2.183594 26 4.875 26L21.125 26C23.816406 26 26 23.816406 26 21.125L26 4.875C26 2.183594 23.816406 0 21.125 0 Z M 8.039063 22.070313L4 22.070313L3.976563 9.976563L8.015625 9.976563 Z M 5.917969 8.394531L5.894531 8.394531C4.574219 8.394531 3.722656 7.484375 3.722656 6.351563C3.722656 5.191406 4.601563 4.3125 5.945313 4.3125C7.289063 4.3125 8.113281 5.191406 8.140625 6.351563C8.140625 7.484375 7.285156 8.394531 5.917969 8.394531 Z M 22.042969 22.070313L17.96875 22.070313L17.96875 15.5C17.96875 13.910156 17.546875 12.828125 16.125 12.828125C15.039063 12.828125 14.453125 13.558594 14.171875 14.265625C14.066406 14.519531 14.039063 14.867188 14.039063 15.222656L14.039063 22.070313L9.945313 22.070313L9.921875 9.976563L14.015625 9.976563L14.039063 11.683594C14.5625 10.875 15.433594 9.730469 17.519531 9.730469C20.105469 9.730469 22.039063 11.417969 22.039063 15.046875L22.039063 22.070313Z"/>
</symbol>
<symbol viewBox="0 0 26 26" id="mail">
    <path d="M3 4C1.34375 4 0 5.34375 0 7L0 19C0 20.65625 1.34375 22 3 22L23 22C24.65625 22 26 20.65625 26 19L26 7C26 5.34375 24.65625 4 23 4 Z M 0.78125 6.84375L13 13.4375L25.21875 6.84375L17.46875 12.875L23.875 19.4375L16.0625 13.875L13 15.84375L9.9375 13.875L2.125 19.4375L8.53125 12.875Z"/>
</symbol>
<symbol viewBox="0 0 26 26" id="phone">
    <path d="M22.386719 18.027344C20.839844 16.703125 19.265625 15.898438 17.738281 17.222656L16.824219 18.019531C16.15625 18.601563 14.914063 21.3125 10.113281 15.785156C5.3125 10.269531 8.167969 9.410156 8.839844 8.835938L9.757813 8.035156C11.277344 6.710938 10.703125 5.042969 9.605469 3.324219L8.945313 2.285156C7.84375 0.574219 6.640625 -0.550781 5.117188 0.769531L4.292969 1.492188C3.617188 1.980469 1.734375 3.578125 1.277344 6.609375C0.726563 10.246094 2.464844 14.414063 6.4375 18.984375C10.40625 23.558594 14.296875 25.855469 17.976563 25.816406C21.035156 25.78125 22.886719 24.140625 23.464844 23.542969L24.289063 22.820313C25.8125 21.5 24.867188 20.152344 23.316406 18.828125Z"/>
</symbol>
<symbol viewBox="0 0 26 26" id="marker">
    <path d="M13 0C9.6875 0 7 2.6875 7 6C7 9.3125 12.21875 17.542969 12.21875 22L13.78125 22C13.78125 17.558594 19 9.042969 19 6C19 2.6875 16.3125 0 13 0 Z M 13 3C14.65625 3 16 4.34375 16 6C16 7.65625 14.65625 9 13 9C11.34375 9 10 7.65625 10 6C10 4.34375 11.34375 3 13 3 Z M 6.84375 17.28125C6.824219 17.289063 6.800781 17.300781 6.78125 17.3125C4.9375 17.636719 3.371094 18.082031 2.1875 18.6875C1.59375 18.992188 1.082031 19.351563 0.6875 19.78125C0.292969 20.210938 0 20.773438 0 21.40625C0 22.355469 0.628906 23.09375 1.375 23.625C2.121094 24.15625 3.066406 24.558594 4.21875 24.90625C6.523438 25.597656 9.605469 26 13 26C16.394531 26 19.476563 25.597656 21.78125 24.90625C22.933594 24.558594 23.878906 24.15625 24.625 23.625C25.371094 23.09375 26 22.355469 26 21.40625C26 20.773438 25.710938 20.183594 25.3125 19.75C24.914063 19.316406 24.40625 18.992188 23.8125 18.6875C22.621094 18.082031 21.042969 17.636719 19.1875 17.3125C18.828125 17.234375 18.457031 17.359375 18.21875 17.636719C17.976563 17.917969 17.910156 18.304688 18.039063 18.644531C18.171875 18.988281 18.480469 19.234375 18.84375 19.28125C20.566406 19.582031 22 20.007813 22.90625 20.46875C23.359375 20.699219 23.679688 20.945313 23.84375 21.125C24.007813 21.304688 24 21.375 24 21.40625C24 21.453125 23.9375 21.667969 23.46875 22C23 22.332031 22.207031 22.695313 21.1875 23C19.148438 23.609375 16.230469 24 13 24C9.769531 24 6.851563 23.609375 4.8125 23C3.792969 22.695313 3 22.332031 2.53125 22C2.0625 21.667969 2 21.453125 2 21.40625C2 21.375 1.992188 21.304688 2.15625 21.125C2.320313 20.945313 2.644531 20.699219 3.09375 20.46875C3.996094 20.007813 5.410156 19.582031 7.125 19.28125C7.675781 19.203125 8.0625 18.691406 7.984375 18.140625C7.90625 17.589844 7.394531 17.203125 6.84375 17.28125Z"/>
</symbol>
<symbol viewBox="0 0 26 26" id="search">
    <path d="M10 0.1875C4.578125 0.1875 0.1875 4.578125 0.1875 10C0.1875 15.421875 4.578125 19.8125 10 19.8125C12.289063 19.8125 14.394531 19.003906 16.0625 17.6875L16.9375 18.5625C16.570313 19.253906 16.699219 20.136719 17.28125 20.71875L21.875 25.34375C22.589844 26.058594 23.753906 26.058594 24.46875 25.34375L25.34375 24.46875C26.058594 23.753906 26.058594 22.589844 25.34375 21.875L20.71875 17.28125C20.132813 16.695313 19.253906 16.59375 18.5625 16.96875L17.6875 16.09375C19.011719 14.421875 19.8125 12.300781 19.8125 10C19.8125 4.578125 15.421875 0.1875 10 0.1875 Z M 10 2C14.417969 2 18 5.582031 18 10C18 14.417969 14.417969 18 10 18C5.582031 18 2 14.417969 2 10C2 5.582031 5.582031 2 10 2 Z M 4.9375 7.46875C4.421875 8.304688 4.125 9.289063 4.125 10.34375C4.125 13.371094 6.566406 15.8125 9.59375 15.8125C10.761719 15.8125 11.859375 15.433594 12.75 14.8125C12.511719 14.839844 12.246094 14.84375 12 14.84375C8.085938 14.84375 4.9375 11.695313 4.9375 7.78125C4.9375 7.675781 4.933594 7.574219 4.9375 7.46875Z"/>
</symbol>
<symbol viewBox="0 0 26 26" id="trash">
    <path d="M11.5 -0.03125C9.542969 -0.03125 7.96875 1.59375 7.96875 3.5625L7.96875 4L4 4C3.449219 4 3 4.449219 3 5L3 6L2 6L2 8L4 8L4 23C4 24.644531 5.355469 26 7 26L19 26C20.644531 26 22 24.644531 22 23L22 8L24 8L24 6L23 6L23 5C23 4.449219 22.550781 4 22 4L18.03125 4L18.03125 3.5625C18.03125 1.59375 16.457031 -0.03125 14.5 -0.03125 Z M 11.5 2.03125L14.5 2.03125C15.304688 2.03125 15.96875 2.6875 15.96875 3.5625L15.96875 4L10.03125 4L10.03125 3.5625C10.03125 2.6875 10.695313 2.03125 11.5 2.03125 Z M 6 8L11.125 8C11.25 8.011719 11.371094 8.03125 11.5 8.03125L14.5 8.03125C14.628906 8.03125 14.75 8.011719 14.875 8L20 8L20 23C20 23.5625 19.5625 24 19 24L7 24C6.4375 24 6 23.5625 6 23 Z M 8 10L8 22L10 22L10 10 Z M 12 10L12 22L14 22L14 10 Z M 16 10L16 22L18 22L18 10Z"/>
</symbol>
<symbol viewBox="0 0 26 26" id="twitter">
    <path d="M25.855469 5.574219C24.914063 5.992188 23.902344 6.273438 22.839844 6.402344C23.921875 5.75 24.757813 4.722656 25.148438 3.496094C24.132813 4.097656 23.007813 4.535156 21.8125 4.769531C20.855469 3.75 19.492188 3.113281 17.980469 3.113281C15.082031 3.113281 12.730469 5.464844 12.730469 8.363281C12.730469 8.773438 12.777344 9.175781 12.867188 9.558594C8.503906 9.339844 4.636719 7.246094 2.046875 4.070313C1.59375 4.847656 1.335938 5.75 1.335938 6.714844C1.335938 8.535156 2.261719 10.140625 3.671875 11.082031C2.808594 11.054688 2 10.820313 1.292969 10.425781C1.292969 10.449219 1.292969 10.46875 1.292969 10.492188C1.292969 13.035156 3.101563 15.15625 5.503906 15.640625C5.0625 15.761719 4.601563 15.824219 4.121094 15.824219C3.78125 15.824219 3.453125 15.792969 3.132813 15.730469C3.800781 17.8125 5.738281 19.335938 8.035156 19.375C6.242188 20.785156 3.976563 21.621094 1.515625 21.621094C1.089844 21.621094 0.675781 21.597656 0.265625 21.550781C2.585938 23.039063 5.347656 23.90625 8.3125 23.90625C17.96875 23.90625 23.25 15.90625 23.25 8.972656C23.25 8.742188 23.246094 8.515625 23.234375 8.289063C24.261719 7.554688 25.152344 6.628906 25.855469 5.574219"/>
</symbol>
</svg>