<svg width="150" height="100" viewBox="0 0 150 100" fill="none" xmlns="http://www.w3.org/2000/svg">
<g clip-path="url(#clip0_28_660)">
<path d="M23.84 59.397C23.3076 62.5126 22.5282 65.5444 21.5016 68.4925C20.551 71.4405 19.4673 73.6181 18.2506 75.0251C17.0719 76.3987 15.646 77.0854 13.973 77.0854C12.7563 77.0854 12.1479 76.6667 12.1479 75.8291C12.1479 75.1591 12.4141 74.6901 12.9464 74.4221C13.4787 74.1206 14.0871 73.9196 14.7715 73.8191C15.494 73.6516 15.9692 73.4841 16.1974 73.3166C17.4902 72.1105 18.6689 69.9665 19.7335 66.8844C20.8362 63.8023 21.6346 60.6533 22.1289 57.4372C20.646 56.0636 19.9046 54.9414 19.9046 54.0703C19.9046 53.2328 20.1708 52.2613 20.7031 51.1558C21.2734 50.0167 21.9388 49.4472 22.6993 49.4472C23.1556 49.4472 23.5548 49.933 23.897 50.9045C24.2392 51.9095 24.4103 53.1491 24.4103 54.6231C26.2354 56.6332 27.6613 58.3752 28.6879 59.8492C29.7525 56.7337 31.2354 54.1038 33.1365 51.9598C34.9997 49.8157 37.1479 48.7437 39.5814 48.7437C40.4559 48.7437 41.1594 49.0285 41.6917 49.598C42.224 50.134 42.4902 50.737 42.4902 51.407C42.4902 52.1105 42.3191 52.7303 41.9768 53.2663C41.7107 53.8023 41.3305 54.0703 40.8362 54.0703C40.3419 54.0703 40.0947 53.8526 40.0947 53.4171C40.0947 52.9816 39.9426 52.6633 39.6384 52.4623C39.3723 52.1943 39.0111 52.0603 38.5548 52.0603C37.1099 52.0603 35.7601 52.7303 34.5054 54.0703C32.7563 55.9129 31.2734 58.5762 30.0567 62.0603C32.3761 66.4154 33.5358 69.9497 33.5358 72.6633C33.5358 73.7688 33.2506 74.7404 32.6803 75.5779C32.1479 76.4154 31.3305 76.8342 30.2278 76.8342C27.9464 76.8342 26.8057 75.1256 26.8057 71.7085C26.8057 69.263 27.0149 66.9514 27.4331 64.7739C26.3685 62.7973 25.1708 61.005 23.84 59.397V59.397ZM28.6879 67.8392C28.4978 68.9447 28.4027 70.067 28.4027 71.206C28.4027 72.3786 28.4978 73.2831 28.6879 73.9196C28.84 74.5896 29.0301 74.9246 29.2582 74.9246C29.6765 74.9246 29.8856 74.2881 29.8856 73.0151C29.8856 71.7755 29.4864 70.0502 28.6879 67.8392V67.8392ZM52.8133 76.6332C51.4445 76.6332 50.4179 76.3819 49.7335 75.8794C49.5054 75.6784 49.3913 75.1424 49.3913 74.2714C49.3913 73.3668 49.4103 72.1775 49.4483 70.7035C48.5738 72.7136 47.6803 74.2044 46.7677 75.1759C45.8932 76.1474 44.7525 76.6332 43.3457 76.6332C41.9768 76.6332 40.7601 76.0636 39.6955 74.9246C38.6689 73.7521 38.1556 71.943 38.1556 69.4975C38.1556 66.9849 38.935 64.7906 40.494 62.9146C42.0909 61.005 44.1822 60.0502 46.7677 60.0502C47.8704 60.0502 49.1251 60.6868 50.532 61.9598C50.7981 61.6248 51.2734 61.2228 51.9578 60.7538C52.7183 60.2848 53.3267 60.0502 53.7829 60.0502C54.3152 60.0502 54.5814 60.6365 54.5814 61.809C54.5814 62.1105 54.4863 62.6968 54.2962 63.5678C54.1061 64.4724 53.897 65.1256 53.6689 65.5276C53.3267 66.2311 53.1555 68.727 53.1555 73.0151C53.1555 73.8526 53.2696 74.2714 53.4978 74.2714C54.1061 74.2378 54.9236 73.5846 55.9502 72.3115C57.0149 71.0385 58.0415 69.397 59.0301 67.3869C60.0947 65.4104 60.7221 64.4221 60.9122 64.4221C61.1784 64.4221 61.3114 64.5394 61.3114 64.7739C61.3114 65.6449 60.7981 67.0184 59.7715 68.8945C57.0339 74.0536 54.7145 76.6332 52.8133 76.6332V76.6332ZM46.4255 61.8593C45.4749 61.8593 44.4293 62.5126 43.2886 63.8191C42.224 65.0586 41.6917 66.5494 41.6917 68.2914C41.6917 70 41.9768 71.407 42.5472 72.5126C43.1175 73.6181 43.878 74.1708 44.8286 74.1708C45.9692 74.1708 47.6613 71.6415 49.9046 66.5829C49.9426 66.3149 49.9806 65.8961 50.0187 65.3266C50.0567 64.7236 50.0947 64.2714 50.1327 63.9698C49.8286 63.4673 49.2772 62.9983 48.4787 62.5628C47.7183 62.0938 47.0339 61.8593 46.4255 61.8593V61.8593ZM69.8666 68.8945C67.0909 74.0536 64.7525 76.6332 62.8514 76.6332C60.9882 76.6332 59.8666 76.4322 59.4864 76.0301C59.1822 75.6281 59.0301 74.3048 59.0301 72.0603C59.0301 69.8157 59.2772 66.5829 59.7715 62.3618C58.0225 62.0268 57.0909 61.3903 56.9768 60.4523C56.9768 59.9497 57.3571 59.6985 58.1175 59.6985C58.84 59.6985 59.4864 59.8325 60.0567 60.1005C60.3609 57.8894 60.7221 55.6449 61.1403 53.3668C61.2544 52.7638 61.5776 52.2111 62.1099 51.7085C62.6803 51.1725 63.2316 50.9045 63.7639 50.9045C64.1822 50.9045 64.3913 51.541 64.3913 52.8141C64.3913 53.3836 64.1632 56.0636 63.7069 60.8543C64.6194 60.7203 65.646 60.4188 66.7867 59.9497C67.9274 59.4807 68.5928 59.2462 68.7829 59.2462C69.4293 59.2462 69.7525 59.4137 69.7525 59.7487C69.7905 60.0502 69.1441 60.4858 67.8133 61.0553C66.4826 61.5578 65.0567 61.9598 63.5358 62.2613C63.1175 66.7169 62.9084 70.1005 62.9084 72.4121C62.9084 73.6516 63.1175 74.2714 63.5358 74.2714C64.1441 74.2378 64.9806 73.5846 66.0453 72.3115C67.0719 71.072 68.0985 69.4472 69.1251 67.4372C70.1517 65.4271 70.7791 64.4221 71.0073 64.4221C71.2354 64.4221 71.3495 64.5394 71.3495 64.7739C71.3495 65.6449 70.8552 67.0184 69.8666 68.8945V68.8945ZM68.6689 72.3618L68.954 67.2362C68.954 63.9531 69.1251 62.144 69.4673 61.809C69.8476 61.5075 70.4559 61.072 71.2924 60.5025C72.205 59.8995 72.8514 59.598 73.2316 59.598C73.6498 59.598 73.916 59.6482 74.0301 59.7487C74.1441 59.8827 74.2012 60.134 74.2012 60.5025C74.2012 61.809 73.859 63.1491 73.1746 64.5226C72.6803 67.3367 72.4331 69.6482 72.4331 71.4573C72.4331 73.2663 72.7563 74.1708 73.4027 74.1708C74.2012 74.1708 75.1517 73.5511 76.2544 72.3115C77.319 71.1055 78.3837 69.2797 79.4483 66.8342C79.7905 63.7856 80.0377 62.1273 80.1898 61.8593C80.4179 61.6248 80.9122 61.1893 81.6727 60.5528C82.4331 59.9162 83.0605 59.598 83.5548 59.598C84.0871 59.598 84.3533 60.1675 84.3533 61.3065C84.3533 61.6415 84.2392 62.2445 84.0111 63.1156C83.859 64.0201 83.6498 64.6734 83.3837 65.0754C83.0035 65.9129 82.8133 68.5595 82.8133 73.0151C82.8133 73.8526 82.9274 74.2714 83.1556 74.2714C83.7259 74.2378 84.5434 73.5846 85.608 72.3115C86.6346 71.0385 87.6613 69.397 88.6879 67.3869C89.7145 65.4104 90.3419 64.4221 90.57 64.4221C90.7981 64.4221 90.9122 64.5394 90.9122 64.7739C90.9122 65.6449 90.3989 67.0184 89.3723 68.8945C86.6346 74.0536 84.3343 76.6332 82.4711 76.6332C81.1023 76.6332 80.0757 76.3819 79.3913 75.8794C79.1251 75.6784 78.9921 75.0251 78.9921 73.9196C78.9921 72.8141 79.0491 71.5745 79.1632 70.201C78.0605 72.3115 76.9388 73.9196 75.7981 75.0251C74.6955 76.0971 73.4407 76.6332 72.0339 76.6332C70.7031 76.6332 69.8095 76.2981 69.3533 75.6281C68.897 74.9916 68.6689 73.9028 68.6689 72.3618V72.3618ZM92.281 64.3719L95.1327 64.0703C95.4369 64.0703 95.6841 64.2211 95.8742 64.5226C96.1023 64.7906 96.2164 65.0754 96.2164 65.3769C96.2164 65.6784 96.0833 66.7169 95.8171 68.4925C95.627 70.268 95.532 71.6918 95.532 72.7638C95.532 73.7688 95.627 74.2714 95.8171 74.2714C96.4255 74.2378 97.243 73.5846 98.2696 72.3115C99.3343 71.0385 100.361 69.397 101.349 67.3869C102.414 65.4104 103.041 64.4221 103.232 64.4221C103.498 64.4221 103.631 64.5394 103.631 64.7739C103.631 65.6449 103.118 67.0184 102.091 68.8945C99.3533 74.0536 97.0339 76.6332 95.1327 76.6332C93.8019 76.6332 92.7753 76.3819 92.0529 75.8794C91.8247 75.6784 91.7107 74.3384 91.7107 71.8593C91.7107 69.4137 91.9959 67.3199 92.5662 65.5779C90.551 65.5779 89.1441 65.0084 88.3457 63.8693C87.9274 63.2663 87.7183 62.5963 87.7183 61.8593C87.7183 61.1223 87.8894 60.4858 88.2316 59.9497C88.5738 59.3802 89.0681 59.0955 89.7145 59.0955C90.3609 59.0955 90.9502 59.4137 91.4825 60.0502C92.0529 60.6198 92.3381 61.273 92.3381 62.01C92.3381 62.7471 92.0909 63.4841 91.5966 64.2211C91.7487 64.3216 91.9768 64.3719 92.281 64.3719V64.3719ZM115.722 76.6332C114.391 76.6332 113.365 76.3819 112.642 75.8794C112.414 75.6784 112.3 75.1424 112.3 74.2714C112.3 73.3668 112.338 72.1775 112.414 70.7035C111.502 72.7136 110.589 74.2044 109.676 75.1759C108.802 76.1474 107.661 76.6332 106.254 76.6332C104.886 76.6332 103.669 76.0636 102.604 74.9246C101.578 73.7521 101.064 71.943 101.064 69.4975C101.064 66.9849 101.844 64.7906 103.403 62.9146C105 61.005 107.091 60.0502 109.676 60.0502C110.779 60.0502 112.034 60.6868 113.441 61.9598C113.707 61.6248 114.201 61.2228 114.924 60.7538C115.646 60.2848 116.254 60.0502 116.749 60.0502C117.243 60.0502 117.49 60.6365 117.49 61.809C117.49 62.1105 117.395 62.6968 117.205 63.5678C117.015 64.4724 116.806 65.1256 116.578 65.5276C116.273 66.2311 116.121 68.727 116.121 73.0151C116.121 73.8526 116.216 74.2714 116.407 74.2714C117.015 74.2378 117.832 73.5846 118.859 72.3115C119.924 71.0385 120.95 69.397 121.939 67.3869C123.003 65.4104 123.631 64.4221 123.821 64.4221C124.087 64.4221 124.22 64.5394 124.22 64.7739C124.22 65.6449 123.707 67.0184 122.68 68.8945C119.943 74.0536 117.623 76.6332 115.722 76.6332V76.6332ZM109.391 61.8593C108.403 61.8593 107.357 62.5126 106.254 63.8191C105.152 65.0586 104.6 66.5494 104.6 68.2914C104.6 70 104.886 71.407 105.456 72.5126C106.026 73.6181 106.787 74.1708 107.737 74.1708C108.878 74.1708 110.57 71.6415 112.813 66.5829C112.851 66.3149 112.889 65.8961 112.927 65.3266C113.003 64.7236 113.06 64.2714 113.099 63.9698C112.756 63.4673 112.186 62.9983 111.387 62.5628C110.627 62.0938 109.962 61.8593 109.391 61.8593V61.8593ZM124.905 76.6332C124.144 76.6332 123.422 76.5494 122.737 76.3819C122.129 76.2144 121.749 76.0469 121.597 75.8794C121.254 75.5109 121.083 73.6013 121.083 70.1507C121.083 66.7002 121.521 62.01 122.395 56.0804C123.118 51.1893 124.829 48.7437 127.528 48.7437C128.137 48.7437 128.574 49.062 128.84 49.6985C129.144 50.268 129.296 50.8208 129.296 51.3568C129.296 55.3769 127.908 59.8492 125.133 64.7739C125.057 67.3199 125.019 69.5477 125.019 71.4573C125.019 73.3333 125.209 74.2714 125.589 74.2714C126.159 74.2378 126.977 73.5846 128.041 72.3115C129.068 71.0385 130.095 69.397 131.121 67.3869C132.148 65.4104 132.775 64.4221 133.003 64.4221C133.232 64.4221 133.346 64.5394 133.346 64.7739C133.346 65.6449 132.851 67.0184 131.863 68.8945C129.087 74.0536 126.768 76.6332 124.905 76.6332V76.6332ZM127.984 51.809C127.984 50.804 127.832 50.3015 127.528 50.3015C126.502 50.3015 125.741 54.1373 125.247 61.809C127.072 57.5879 127.984 54.2546 127.984 51.809Z" fill="#262626"/>
<path d="M64.2771 91.7085C63.2885 91.7085 62.5281 91.5578 61.9957 91.2563C61.4634 90.9548 61.1973 90.5025 61.1973 89.8995C61.1973 89.598 61.3113 89.3467 61.5395 89.1457C61.7676 88.9447 62.0718 88.8442 62.452 88.8442C62.6802 88.8777 62.8513 88.9447 62.9653 89.0452C63.0414 89.1457 63.0794 89.2127 63.0794 89.2462C63.0794 89.2797 63.0414 89.3132 62.9653 89.3467C62.8893 89.3802 62.8132 89.4472 62.7372 89.5477C62.6611 89.6482 62.6231 89.799 62.6231 90C62.6231 90.3685 62.7562 90.67 63.0224 90.9045C63.2505 91.1055 63.6687 91.206 64.2771 91.206C64.6573 91.206 64.9995 91.139 65.3037 91.005C65.6079 90.871 65.836 90.6868 65.9881 90.4523C66.1402 90.2513 66.2163 90.0335 66.2163 89.799C66.2163 89.4305 66.1022 89.129 65.8741 88.8945C65.6459 88.6935 65.3418 88.5092 64.9615 88.3417C64.5813 88.1742 64.2011 88.0067 63.8208 87.8392C63.4026 87.7052 63.0033 87.5377 62.6231 87.3367C62.2809 87.1357 61.9957 86.9012 61.7676 86.6332C61.5014 86.3316 61.3684 85.9631 61.3684 85.5276C61.3684 85.0251 61.5014 84.6064 61.7676 84.2713C62.0338 83.9363 62.395 83.6851 62.8513 83.5176C63.3456 83.3836 63.8779 83.3166 64.4482 83.3166C64.8665 83.3166 65.2847 83.3668 65.703 83.4673C66.1212 83.5678 66.4634 83.7353 66.7296 83.9698C66.9957 84.2044 67.1288 84.5059 67.1288 84.8744C67.1288 85.1759 67.0148 85.4271 66.7866 85.6281C66.5585 85.8291 66.2543 85.9296 65.8741 85.9296C65.6459 85.8961 65.4748 85.8459 65.3608 85.7789C65.2467 85.6784 65.1897 85.5946 65.1897 85.5276C65.1897 85.4941 65.2467 85.4606 65.3608 85.4271C65.4748 85.3936 65.5889 85.3266 65.703 85.2261C65.817 85.1256 65.8741 84.9916 65.8741 84.8241C65.8741 84.4891 65.741 84.2379 65.4748 84.0703C65.2087 83.9028 64.8665 83.8191 64.4482 83.8191C63.8398 83.8191 63.3836 83.9531 63.0794 84.2211C62.8132 84.4556 62.6802 84.7404 62.6802 85.0754C62.6802 85.3769 62.7752 85.6281 62.9653 85.8291C63.1554 85.9966 63.4406 86.1809 63.8208 86.3819C64.2391 86.5829 64.6763 86.7672 65.1326 86.9347C65.5509 87.1022 65.9501 87.2864 66.3303 87.4874C66.7106 87.6884 67.0148 87.9564 67.2429 88.2915C67.471 88.593 67.5851 88.995 67.5851 89.4975C67.5851 89.933 67.433 90.3182 67.1288 90.6533C66.8246 90.9883 66.4254 91.2395 65.9311 91.407C65.4368 91.608 64.8855 91.7085 64.2771 91.7085V91.7085ZM68.6117 91.5075C68.5357 91.5075 68.4786 91.474 68.4406 91.407C68.4026 91.3735 68.3836 91.3233 68.3836 91.2563C68.3836 91.1223 68.4216 91.0553 68.4976 91.0553C68.5357 91.0218 68.6117 91.005 68.7258 91.005C68.9539 91.005 69.125 90.9715 69.2391 90.9045C69.3532 90.8375 69.4102 90.737 69.4102 90.603C69.4102 90.469 69.4102 90.3182 69.4102 90.1507V84.0703C69.4102 83.9028 69.4102 83.7688 69.4102 83.6683C69.4102 83.5343 69.3532 83.4171 69.2391 83.3166C69.163 83.2496 68.9919 83.2161 68.7258 83.2161C68.6497 83.2161 68.5737 83.1993 68.4976 83.1658C68.4216 83.1658 68.3836 83.0988 68.3836 82.9648C68.3836 82.8308 68.4596 82.7471 68.6117 82.7136C69.03 82.6801 69.3532 82.6298 69.5813 82.5628C69.8094 82.4958 69.9995 82.4456 70.1516 82.4121C70.2657 82.3786 70.3608 82.3451 70.4368 82.3116C70.5129 82.3116 70.5889 82.3283 70.6649 82.3618C70.703 82.3953 70.722 82.4623 70.722 82.5628V88.2915C71.1402 88.2244 71.4824 88.0737 71.7486 87.8392L72.9463 86.7337C73.0224 86.7002 73.0794 86.6499 73.1174 86.5829C73.1935 86.5159 73.2505 86.4489 73.2885 86.3819C73.2885 86.3149 73.2505 86.2647 73.1745 86.2312C73.0604 86.1977 72.8703 86.1977 72.6041 86.2312C72.49 86.1977 72.433 86.1139 72.433 85.9799C72.433 85.9129 72.452 85.8626 72.49 85.8291C72.5281 85.7621 72.5851 85.7286 72.6611 85.7286C72.8893 85.7621 73.1554 85.7789 73.4596 85.7789C73.7638 85.7789 74.03 85.7789 74.2581 85.7789C74.4102 85.7789 74.5623 85.7789 74.7144 85.7789C74.8665 85.7789 75.0186 85.7621 75.1707 85.7286C75.2467 85.7286 75.3037 85.7621 75.3418 85.8291C75.3798 85.8626 75.3988 85.9129 75.3988 85.9799C75.3988 86.1139 75.3798 86.1809 75.3418 86.1809C75.3037 86.2144 75.2467 86.2312 75.1707 86.2312C74.7904 86.2312 74.4862 86.2814 74.2581 86.3819C74.03 86.5159 73.7828 86.7002 73.5167 86.9347L72.3189 88.0402C72.433 88.1742 72.5851 88.3417 72.7752 88.5427C72.9653 88.7102 73.1554 88.9112 73.3456 89.1457C73.5737 89.3467 73.7828 89.5477 73.9729 89.7487C74.163 89.9162 74.3151 90.067 74.4292 90.201C74.6954 90.469 74.9235 90.67 75.1136 90.804C75.3037 90.938 75.5319 91.005 75.798 91.005C75.8741 91.0385 75.9501 91.0553 76.0262 91.0553C76.1022 91.0553 76.1402 91.1223 76.1402 91.2563C76.1402 91.3233 76.1212 91.3735 76.0832 91.407C76.0452 91.474 75.9881 91.5075 75.9121 91.5075C75.76 91.474 75.6459 91.4573 75.5699 91.4573C75.4938 91.4573 75.3988 91.4573 75.2847 91.4573C75.1706 91.4573 75.0186 91.4573 74.8284 91.4573C74.6383 91.4573 74.3722 91.4573 74.03 91.4573C73.6878 91.1558 73.2885 90.7705 72.8322 90.3015C72.414 89.866 71.9957 89.4305 71.5775 88.995C71.4634 88.8945 71.3303 88.8107 71.1783 88.7437C71.0642 88.6767 70.9121 88.6432 70.722 88.6432V90.1507C70.722 90.3182 70.722 90.469 70.722 90.603C70.76 90.737 70.817 90.8375 70.8931 90.9045C71.0072 90.9715 71.1973 91.005 71.4634 91.005C71.5395 91.005 71.6155 91.0218 71.6916 91.0553C71.7676 91.0553 71.8056 91.1223 71.8056 91.2563C71.8056 91.3233 71.7866 91.3735 71.7486 91.407C71.7106 91.474 71.6535 91.5075 71.5775 91.5075C71.3113 91.474 71.0452 91.4573 70.779 91.4573C70.5509 91.4573 70.3227 91.4573 70.0946 91.4573C69.8284 91.4573 69.5813 91.4573 69.3532 91.4573C69.125 91.4573 68.8779 91.474 68.6117 91.5075V91.5075ZM76.8246 91.5075C76.7486 91.5075 76.6916 91.474 76.6535 91.407C76.6155 91.3735 76.5965 91.3233 76.5965 91.2563C76.5965 91.1223 76.6345 91.0553 76.7106 91.0553C76.7486 91.0218 76.8246 91.005 76.9387 91.005C77.2049 91.005 77.376 90.9715 77.452 90.9045C77.5661 90.8375 77.6231 90.737 77.6231 90.603C77.6231 90.469 77.6231 90.3182 77.6231 90.1507V87.2864C77.6231 87.1524 77.6231 87.0184 77.6231 86.8844C77.6231 86.7504 77.5661 86.6499 77.452 86.5829C77.376 86.4824 77.2049 86.4322 76.9387 86.4322C76.8246 86.4322 76.7296 86.4322 76.6535 86.4322C76.6155 86.3987 76.5965 86.3149 76.5965 86.1809C76.5965 86.0804 76.6725 86.0134 76.8246 85.9799C77.2429 85.9129 77.5661 85.8459 77.7942 85.7789C78.0224 85.7454 78.2125 85.6951 78.3646 85.6281C78.4786 85.5946 78.5737 85.5779 78.6497 85.5779C78.7258 85.5779 78.8018 85.5946 78.8779 85.6281C78.9159 85.6616 78.9349 85.7286 78.9349 85.8291V90.1507C78.9349 90.3182 78.9349 90.469 78.9349 90.603C78.9729 90.737 79.03 90.8375 79.106 90.9045C79.2201 90.9715 79.4102 91.005 79.6764 91.005C79.7524 91.005 79.8284 91.0218 79.9045 91.0553C79.9805 91.0553 80.0186 91.1223 80.0186 91.2563C80.0186 91.3233 79.9995 91.3735 79.9615 91.407C79.9235 91.474 79.8665 91.5075 79.7904 91.5075C79.5243 91.474 79.2581 91.4573 78.9919 91.4573C78.7638 91.4573 78.5357 91.4573 78.3075 91.4573C78.0414 91.4573 77.7942 91.4573 77.5661 91.4573C77.3379 91.4573 77.0908 91.474 76.8246 91.5075V91.5075ZM78.1935 84.1708C77.9273 84.1708 77.7182 84.1039 77.5661 83.9698C77.376 83.8023 77.2809 83.6181 77.2809 83.4171C77.2809 83.2161 77.395 83.0486 77.6231 82.9146C77.8132 82.7471 78.0604 82.6633 78.3646 82.6633C78.5927 82.6633 78.7828 82.7471 78.9349 82.9146C79.087 83.0486 79.163 83.2328 79.163 83.4673C79.163 83.6683 79.068 83.8358 78.8779 83.9698C78.6878 84.1039 78.4596 84.1708 78.1935 84.1708V84.1708ZM80.9311 91.5075C80.8551 91.5075 80.798 91.474 80.76 91.407C80.722 91.3735 80.703 91.3233 80.703 91.2563C80.741 91.1223 80.779 91.0553 80.817 91.0553C80.8931 91.0218 80.9691 91.005 81.0452 91.005C81.3113 91.005 81.5015 90.9715 81.6155 90.9045C81.6916 90.8375 81.7296 90.737 81.7296 90.603C81.7676 90.469 81.7866 90.3182 81.7866 90.1507V87.2864C81.7866 87.1524 81.7676 87.0184 81.7296 86.8844C81.7296 86.7504 81.6916 86.6499 81.6155 86.5829C81.5015 86.4824 81.3113 86.4322 81.0452 86.4322C80.9691 86.4322 80.8931 86.4322 80.817 86.4322C80.741 86.3987 80.703 86.3149 80.703 86.1809C80.703 86.0804 80.779 86.0134 80.9311 85.9799C81.3874 85.9129 81.7296 85.8459 81.9577 85.7789C82.1859 85.7454 82.357 85.6951 82.471 85.6281C82.5851 85.5946 82.6992 85.5779 82.8132 85.5779C82.8893 85.5779 82.9463 85.5946 82.9843 85.6281C83.0224 85.6616 83.0414 85.7286 83.0414 85.8291V86.5829H83.0984C83.2885 86.4154 83.4786 86.2646 83.6687 86.1306C83.8969 85.9966 84.144 85.8794 84.4102 85.7789C84.6764 85.6784 84.9995 85.6281 85.3798 85.6281C86.0262 85.6281 86.5395 85.7956 86.9197 86.1306C87.2999 86.4657 87.49 86.9179 87.49 87.4874V90.1507C87.49 90.3182 87.49 90.469 87.49 90.603C87.5281 90.737 87.5851 90.8375 87.6611 90.9045C87.7752 90.9715 87.9653 91.005 88.2315 91.005C88.3075 91.005 88.3836 91.0218 88.4596 91.0553C88.5357 91.0553 88.5737 91.1223 88.5737 91.2563C88.5737 91.3233 88.5547 91.3735 88.5167 91.407C88.4786 91.474 88.4216 91.5075 88.3456 91.5075C88.0794 91.474 87.8132 91.4573 87.5471 91.4573C87.3189 91.4573 87.0908 91.4573 86.8627 91.4573C86.5965 91.4573 86.3494 91.4573 86.1212 91.4573C85.8931 91.4573 85.6459 91.474 85.3798 91.5075C85.3037 91.5075 85.2467 91.474 85.2087 91.407C85.1706 91.3735 85.1516 91.3233 85.1516 91.2563C85.1516 91.1223 85.1897 91.0553 85.2657 91.0553C85.3037 91.0218 85.3798 91.005 85.4938 91.005C85.76 91.005 85.9311 90.9715 86.0072 90.9045C86.1212 90.8375 86.1783 90.737 86.1783 90.603C86.2163 90.469 86.2353 90.3182 86.2353 90.1507V87.4874C86.2353 87.2194 86.1592 87.0017 86.0072 86.8342C85.8551 86.6667 85.684 86.5327 85.4938 86.4322C85.2657 86.3652 85.0566 86.3317 84.8665 86.3317C84.5243 86.3317 84.2391 86.3819 84.011 86.4824C83.7448 86.5829 83.5357 86.7002 83.3836 86.8342C83.2315 86.9682 83.1364 87.0854 83.0984 87.1859V90.1507C83.0984 90.3182 83.0984 90.469 83.0984 90.603C83.0984 90.737 83.1554 90.8375 83.2695 90.9045C83.3836 90.9715 83.5737 91.005 83.8399 91.005C83.9159 91.005 83.9729 91.0218 84.011 91.0553C84.087 91.0553 84.125 91.1223 84.125 91.2563C84.125 91.3233 84.106 91.3735 84.068 91.407C84.03 91.474 83.9729 91.5075 83.8969 91.5075C83.6307 91.474 83.3836 91.4573 83.1554 91.4573C82.9273 91.4573 82.6802 91.4573 82.414 91.4573C82.1478 91.4573 81.9007 91.4573 81.6725 91.4573C81.4444 91.4573 81.1973 91.474 80.9311 91.5075V91.5075Z" fill="#999999"/>
<path d="M91.5393 44.9749C88.0032 48.0904 82.0716 47.9397 82.0716 47.9397C82.0716 47.9397 81.9005 42.7136 85.4367 39.5477C89.0298 36.4321 94.9614 36.5829 94.9614 36.5829C94.9614 36.5829 95.1325 41.809 91.5393 44.9749Z" fill="#98AB3F"/>
<path d="M55.722 36.5829C55.722 36.5829 61.6536 36.4321 65.1897 39.5477C68.7258 42.7136 68.5547 47.9397 68.5547 47.9397C68.5547 47.9397 62.6232 48.0904 59.0871 44.9749C55.5509 41.809 55.722 36.5829 55.722 36.5829V36.5829Z" fill="#98AB3F"/>
<path d="M82.0718 35.4271C82.0718 40.5025 78.4216 44.8744 76.4824 46.8342L75.3418 28.6935V42.2613V47.9397V52.4623L73.8018 46.4322C71.8056 44.3216 68.5547 40.201 68.5547 35.4271C68.5547 28.4925 75.3418 22.8643 75.3418 22.8643C75.3418 22.8643 82.0718 28.4925 82.0718 35.4271Z" fill="#3B6945"/>
<path d="M52.4142 43.9698C51.1024 42.8141 48.9922 42.8141 47.6804 43.9698C46.4256 45.1256 44.2583 45.1256 43.0036 43.9698C41.6918 42.8141 39.5815 42.8141 38.2697 43.9698C36.958 45.1256 34.8477 45.1256 33.5359 43.9698C32.2241 42.8141 30.1138 42.8141 28.8021 43.9698C27.4903 45.1256 25.38 45.1256 24.0682 43.9698C22.7564 42.8141 20.6462 42.8141 19.3344 43.9698C18.0226 45.1256 15.9123 45.1256 14.6005 43.9698C13.3458 42.8141 11.1785 42.8141 9.92374 43.9698C8.61195 45.1256 6.50168 45.1256 5.18989 43.9698C3.87811 42.8141 1.76784 42.8141 0.456055 43.9698" stroke="#98AB3F" stroke-width="2.3"/>
<path d="M149.03 43.9698C147.719 42.8141 145.608 42.8141 144.297 43.9698C142.985 45.1256 140.874 45.1256 139.563 43.9698C138.251 42.8141 136.141 42.8141 134.829 43.9698C133.517 45.1256 131.407 45.1256 130.095 43.9698C128.783 42.8141 126.673 42.8141 125.418 43.9698C124.106 45.1256 121.996 45.1256 120.684 43.9698C119.373 42.8141 117.262 42.8141 115.95 43.9698C114.639 45.1256 112.528 45.1256 111.217 43.9698C109.905 42.8141 107.795 42.8141 106.483 43.9698C105.171 45.1256 103.061 45.1256 101.749 43.9698C100.437 42.8141 98.3269 42.8141 97.0151 43.9698" stroke="#98AB3F" stroke-width="2.3"/>
<path d="M0.456055 88.593C1.76784 87.4874 3.87811 87.4874 5.18989 88.593C6.50168 89.7487 8.61195 89.7487 9.92374 88.593C11.1785 87.4874 13.3458 87.4874 14.6005 88.593C15.9123 89.7487 18.0226 89.7487 19.3344 88.593C20.6462 87.4874 22.7564 87.4874 24.0682 88.593C25.38 89.7487 27.4903 89.7487 28.8021 88.593C30.1138 87.4874 32.2241 87.4874 33.5359 88.593C34.8477 89.7487 36.958 89.7487 38.2697 88.593C39.5815 87.4874 41.6918 87.4874 43.0036 88.593C44.2583 89.7487 46.4256 89.7487 47.6804 88.593C48.9922 87.4874 51.1024 87.4874 52.4142 88.593" stroke="#98AB3F" stroke-width="2.3"/>
<path d="M97.0151 88.593C98.3269 87.4874 100.437 87.4874 101.749 88.593C103.061 89.7487 105.171 89.7487 106.483 88.593C107.795 87.4874 109.905 87.4874 111.217 88.593C112.528 89.7487 114.639 89.7487 115.95 88.593C117.262 87.4874 119.373 87.4874 120.684 88.593C121.996 89.7487 124.106 89.7487 125.418 88.593C126.673 87.4874 128.783 87.4874 130.095 88.593C131.407 89.7487 133.517 89.7487 134.829 88.593C136.141 87.4874 138.251 87.4874 139.563 88.593C140.874 89.7487 142.985 89.7487 144.297 88.593C145.608 87.4874 147.719 87.4874 149.03 88.593" stroke="#98AB3F" stroke-width="2.3"/>
<path d="M63.935 29.4975C63.935 30.3517 63.1365 31.0553 62.1669 31.0553C61.1403 31.0553 60.3418 30.3517 60.3418 29.4975C60.3418 28.593 61.1403 27.8894 62.1669 27.8894C63.1365 27.8894 63.935 28.593 63.935 29.4975Z" fill="#3B6945"/>
<path d="M89.4296 29.4975C89.4296 30.3517 88.6311 31.0553 87.6615 31.0553C86.6349 31.0553 85.8364 30.3517 85.8364 29.4975C85.8364 28.593 86.6349 27.8894 87.6615 27.8894C88.6311 27.8894 89.4296 28.593 89.4296 29.4975Z" fill="#3B6945"/>
<path d="M32.7373 37.6382C40.6651 24.7236 56.1784 15.9799 74.0301 15.9799C91.8248 15.9799 107.338 24.7236 115.266 37.6382" stroke="#98AB3F" stroke-width="2.2" stroke-linecap="round"/>
<path d="M99.7528 92.7638C92.3384 96.9347 83.4981 99.397 74.0874 99.397C64.7909 99.397 56.1217 97.0352 48.8213 93.0151" stroke="#98AB3F" stroke-width="2.3" stroke-linecap="round"/>
</g>
<defs>
<clipPath id="clip0_28_660">
<rect width="150" height="100" fill="white"/>
</clipPath>
</defs>
</svg>
